<svg fillRule="evenodd" clipRule="evenodd" strokeLinecap="round" strokeLinejoin="round" strokeMiterlimit="1.5"
  width="20" height="20" viewBox="0 0 20 20" xmlns="http://www.w3.org/2000/svg">
  <path
    id="Block_Lab_Icon"
    d="M2.254,4.021c0.031,-0.043 0.07,-0.081 0.119,-0.111l4.937,-2.851c0.08,-0.042 0.168,-0.062 0.262,-0.059c0.054,0.008 0.078,0.004 0.185,0.059l4.937,2.851l4.937,2.85l0.027,0.016l0.024,0.019l0.024,0.02l0.022,0.022l0.022,0.022l0.019,0.025l0.018,0.026l0.015,0.027l0.014,0.028l0.011,0.029l0.011,0.029l0.006,0.031l0.006,0.031l0.003,0.031l0.001,0.031l0,5.7c-0.012,0.237 -0.034,0.266 -0.223,0.388l-9.837,5.679c-0.129,0.099 -0.299,0.121 -0.484,0.022l-4.937,-2.851c-0.025,-0.016 -0.046,-0.029 -0.064,-0.043c-0.118,-0.083 -0.144,-0.133 -0.156,-0.272c-0.009,-0.047 -0.01,-0.093 -0.004,-0.14l0,-11.334c0.006,-0.103 0.044,-0.2 0.105,-0.275Zm1.237,11.677l3.595,2.077l0,-4.153l-3.595,2.076Zm-0.448,-10.626l0,9.852l4.043,-2.334l0,-5.185l-4.043,-2.333Zm9.874,4.151l3.597,-2.076l-3.597,-2.075l0,4.151Z"
    fill="#82878c"
  />
</svg>
