<svg fillRule="evenodd" clipRule="evenodd" strokeLinecap="round" strokeLinejoin="round" strokeMiterlimit="1.5"
  width="20" height="20" viewBox="0 0 20 20" xmlns="http://www.w3.org/2000/svg">
  <path
    id="Block_Lab_Icon"
    d="M2.255,4.02c0.032,-0.042 0.071,-0.08 0.119,-0.111l4.937,-2.85c0.08,-0.042 0.169,-0.063 0.263,-0.058c0.054,0.007 0.077,0.002 0.184,0.058l4.938,2.85l0,0l4.937,2.851l0.026,0.016l0.026,0.019l0.023,0.02l0.023,0.021l0.021,0.023l0.019,0.025l0.017,0.026l0.016,0.027l0.014,0.028l0.011,0.029l0.01,0.03l0.008,0.03l0.005,0.031l0.003,0.031l0.001,0.031l0,0l0,5.701c-0.012,0.235 -0.035,0.265 -0.223,0.387l-9.837,5.679c-0.13,0.099 -0.3,0.12 -0.485,0.022l0,0l-4.937,-2.85l0,0c-0.025,-0.016 -0.046,-0.031 -0.065,-0.044c-0.118,-0.083 -0.143,-0.132 -0.154,-0.271c-0.009,-0.048 -0.011,-0.095 -0.004,-0.141l0,-11.334c0.005,-0.104 0.043,-0.2 0.104,-0.276Zm4.833,13.754l0,-10.369l-4.043,-2.334l0,10.368l4.043,2.335Zm5.831,-8.551l3.596,-2.076l-3.596,-2.076l0,4.152Z"
    fill="#82878c"
  />
</svg>
