<?xml version="1.0" encoding="UTF-8" standalone="no"?><!DOCTYPE svg PUBLIC "-//W3C//DTD SVG 1.1//EN" "http://www.w3.org/Graphics/SVG/1.1/DTD/svg11.dtd"><svg width="100%" height="100%" viewBox="0 0 238 235" version="1.1" xmlns="http://www.w3.org/2000/svg" xmlns:xlink="http://www.w3.org/1999/xlink" xml:space="preserve" xmlns:serif="http://www.serif.com/" style="fill-rule:evenodd;clip-rule:evenodd;stroke-linejoin:round;stroke-miterlimit:1.41421;"><g id="block_lab_wpadmin_icon_newfields"><path d="M125.456,0.552l1.895,0.785l94.853,54.763c1.664,1.277 3.131,2.794 3.661,4.771c0.177,0.66 0.178,1.355 0.268,2.033l0,109.527c-0.274,2.079 -0.855,4.109 -2.302,5.556c-0.483,0.483 -1.085,0.832 -1.627,1.248l-94.853,54.764c-1.937,0.802 -3.985,1.314 -5.962,0.785c-0.66,-0.177 -1.263,-0.524 -1.895,-0.785l-94.853,-54.764c-1.664,-1.276 -3.131,-2.794 -3.661,-4.771c-0.177,-0.66 -0.178,-1.355 -0.267,-2.033l0,-109.527c0.273,-2.079 0.854,-4.109 2.301,-5.556c0.483,-0.483 1.085,-0.832 1.627,-1.248l94.853,-54.763c1.889,-0.783 1.901,-0.786 3.929,-1.053c0.677,0.089 1.355,0.178 2.033,0.268Z" style="fill:#f2eefd;"/><g><path d="M194.423,127.79c0,-5.519 -4.481,-10 -10,-10l-122,0c-5.52,0 -10,4.481 -10,10l0,2c0,5.519 4.48,10 10,10l122,0c5.519,0 10,-4.481 10,-10l0,-2Z" style="fill:#e6d6ef;stroke:#7d5dec;stroke-width:2px;"/><path d="M179.802,122.874l1.584,-1.584l5.537,5.528l-1.593,1.584c-0.914,-0.592 -2.159,-0.496 -2.969,0.313l-0.653,0.653c-0.801,0.81 -0.905,2.046 -0.304,2.969l-1.593,1.584l-2.098,-2.098l-2.438,2.429c-0.365,0.365 -2.942,2.359 -3.308,1.993c-0.365,-0.365 1.619,-2.951 1.985,-3.316l2.429,-2.429l-2.098,-2.107l1.593,-1.584c0.914,0.601 2.159,0.496 2.96,-0.313l0.652,-0.653c0.81,-0.801 0.915,-2.046 0.314,-2.969Z" style="fill:#7d5dec;fill-rule:nonzero;"/></g><g><path d="M194.423,160.79c0,-5.519 -4.481,-10 -10,-10l-122,0c-5.52,0 -10,4.481 -10,10l0,2c0,5.519 4.48,10 10,10l122,0c5.519,0 10,-4.481 10,-10l0,-2Z" style="fill:#e6d6ef;stroke:#7d5dec;stroke-width:2px;"/><path d="M179.647,161.024c-2.108,0 -2.536,-3.195 -2.536,-3.195c-0.25,-1.663 0.511,-3.539 2.508,-3.539c2.006,0 2.768,1.876 2.517,3.539c0,0 -0.381,3.195 -2.489,3.195Zm0,2.387l2.526,-1.691c2.22,0 4.199,2.164 4.199,4.208l0,2.312c0,0 -3.391,1.05 -6.725,1.05c-3.39,0 -6.724,-1.05 -6.724,-1.05l0,-2.312c0,-2.09 1.801,-4.161 4.151,-4.161l2.573,1.644Z" style="fill:#7d5dec;fill-rule:nonzero;"/></g><g><path d="M194.423,20.79c0,-5.519 -4.481,-10 -10,-10l-122,0c-5.52,0 -10,4.481 -10,10l0,70c0,5.519 4.48,10 10,10l122,0c5.519,0 10,-4.481 10,-10l0,-70Z" style="fill:#cfc1ff;stroke:#7d5dec;stroke-width:2px;stroke-linecap:round;stroke-miterlimit:1.5;"/><g><path d="M189.423,26.79c0,-5.519 -4.481,-10 -10,-10l-112,0c-5.52,0 -10,4.481 -10,10l0,2c0,5.519 4.48,10 10,10l112,0c5.519,0 10,-4.481 10,-10l0,-2Z" style="fill:#e6d6ef;stroke:#7d5dec;stroke-width:2px;stroke-linecap:round;stroke-miterlimit:1.5;"/><path d="M174.423,32.79l-5,-8l10,0l-5,8Z" style="fill:#7d5dec;"/></g><g><path d="M189.423,57.79c0,-5.519 -4.481,-10 -10,-10l-112,0c-5.52,0 -10,4.481 -10,10l0,2c0,5.519 4.48,10 10,10l112,0c5.519,0 10,-4.481 10,-10l0,-2Z" style="fill:#e6d6ef;stroke:#7d5dec;stroke-width:2px;"/><path d="M174.423,63.79l-5,-8l10,0l-5,8Z" style="fill:#7d5dec;"/></g><g><path d="M184.423,85.79c0,-4.14 -3.361,-7.5 -7.5,-7.5c-4.14,0 -7.5,3.36 -7.5,7.5c0,4.139 3.36,7.5 7.5,7.5c4.139,0 7.5,-3.361 7.5,-7.5Z" style="fill:#7d5dec;"/><path d="M172.61,84.665l3.188,0l0,-3.188l2.25,0l0,3.188l3.187,0l0,2.25l-3.187,0l0,3.187l-2.25,0l0,-3.187l-3.188,0l0,-2.25Z" style="fill:#e6d6ef;"/></g></g><g><g><path d="M94.127,193.216c0,-5.754 -4.672,-10.426 -10.426,-10.426l-20.852,0c-5.755,0 -10.426,4.672 -10.426,10.426l0,20.852c0,5.754 4.671,10.426 10.426,10.426l20.852,0c5.754,0 10.426,-4.672 10.426,-10.426l0,-20.852Z" style="fill:#e6d6ef;stroke:#7d5dec;stroke-width:2px;"/><path d="M62.511,191.142l21.528,0c0.958,0 1.736,0.778 1.736,1.736l0,21.528c0,0.958 -0.778,1.736 -1.736,1.736l-21.528,0c-0.959,0 -1.736,-0.778 -1.736,-1.736l0,-21.528c0,-0.958 0.777,-1.736 1.736,-1.736Zm20.486,22.222l0,-19.444l-19.445,0l0,19.444l19.445,0Zm-9.722,-15.278c0,-1.527 -1.25,-2.777 -2.778,-2.777c-1.528,0 -2.778,1.25 -2.778,2.777c0,1.528 1.25,2.778 2.778,2.778c1.528,0 2.778,-1.25 2.778,-2.778Zm4.166,6.945c0,0 0,-8.334 4.167,-8.334l0,13.889c0,0.764 -0.625,1.389 -1.389,1.389l-13.889,0c-0.764,0 -1.389,-0.625 -1.389,-1.389l0,-9.722c2.778,0 4.167,5.556 4.167,5.556c0,0 1.389,-4.167 4.167,-4.167c2.777,0 4.166,2.778 4.166,2.778Z" style="fill:#7d5dec;fill-rule:nonzero;"/></g><g><path d="M144.275,193.216c0,-5.754 -4.672,-10.426 -10.426,-10.426l-20.852,0c-5.755,0 -10.427,4.672 -10.427,10.426l0,20.852c0,5.754 4.672,10.426 10.427,10.426l20.852,0c5.754,0 10.426,-4.672 10.426,-10.426l0,-20.852Z" style="fill:#e6d6ef;stroke:#7d5dec;stroke-width:2px;"/><path d="M112.659,191.142l21.527,0c0.959,0 1.737,0.778 1.737,1.736l0,21.528c0,0.958 -0.778,1.736 -1.737,1.736l-21.527,0c-0.959,0 -1.736,-0.778 -1.736,-1.736l0,-21.528c0,-0.958 0.777,-1.736 1.736,-1.736Zm20.486,22.222l0,-19.444l-19.445,0l0,19.444l19.445,0Zm-9.722,-15.278c0,-1.527 -1.25,-2.777 -2.778,-2.777c-1.528,0 -2.778,1.25 -2.778,2.777c0,1.528 1.25,2.778 2.778,2.778c1.528,0 2.778,-1.25 2.778,-2.778Zm4.166,6.945c0,0 0,-8.334 4.167,-8.334l0,13.889c0,0.764 -0.625,1.389 -1.389,1.389l-13.889,0c-0.764,0 -1.389,-0.625 -1.389,-1.389l0,-9.722c2.778,0 4.167,5.556 4.167,5.556c0,0 1.389,-4.167 4.167,-4.167c2.777,0 4.166,2.778 4.166,2.778Z" style="fill:#7d5dec;fill-rule:nonzero;"/></g><path d="M194.423,193.216c0,-5.754 -4.672,-10.426 -10.426,-10.426l-20.853,0c-5.754,0 -10.426,4.672 -10.426,10.426l0,20.852c0,5.754 4.672,10.426 10.426,10.426l20.853,0c5.754,0 10.426,-4.672 10.426,-10.426l0,-20.852Z" style="fill:#f9f5fb;stroke:#e6d6ef;stroke-width:2px;stroke-dasharray:8,4,0,0;"/></g><circle cx="215.962" cy="32.163" r="6.879" style="fill:#ffc800;"/><path d="M20.289,176.807l0,-7.19c0,-1.413 1.147,-2.56 2.56,-2.56c1.413,0 2.56,1.147 2.56,2.56l0,7.19l7.19,0c1.413,0 2.56,1.147 2.56,2.56c0,1.413 -1.147,2.56 -2.56,2.56l-7.19,0l0,7.19c0,1.413 -1.147,2.56 -2.56,2.56c-1.413,0 -2.56,-1.147 -2.56,-2.56l0,-7.19l-7.19,0c-1.413,0 -2.56,-1.147 -2.56,-2.56c0,-1.413 1.147,-2.56 2.56,-2.56l7.19,0Z" style="fill:#eb3a8c;"/><path d="M5.081,153.282l0,-3.686c0,-0.724 0.588,-1.312 1.312,-1.312c0.724,0 1.312,0.588 1.312,1.312l0,3.686l3.686,0c0.724,0 1.312,0.588 1.312,1.312c0,0.724 -0.588,1.312 -1.312,1.312l-3.686,0l0,3.686c0,0.724 -0.588,1.312 -1.312,1.312c-0.724,0 -1.312,-0.588 -1.312,-1.312l0,-3.686l-3.686,0c-0.724,0 -1.312,-0.588 -1.312,-1.312c0,-0.724 0.588,-1.312 1.312,-1.312l3.686,0Z" style="fill:#ffc800;"/><circle cx="230.422" cy="67.658" r="4.626" style="fill:#eb3a8c;"/><circle cx="235.048" cy="34.43" r="2.267" style="fill:#eb3a8c;"/><circle cx="5.656" cy="192.301" r="3.094" style="fill:#ffc800;"/></g></svg>