<?xml version="1.0" encoding="UTF-8" standalone="no"?><!DOCTYPE svg PUBLIC "-//W3C//DTD SVG 1.1//EN" "http://www.w3.org/Graphics/SVG/1.1/DTD/svg11.dtd"><svg width="100%" height="100%" viewBox="0 0 238 235" version="1.1" xmlns="http://www.w3.org/2000/svg" xmlns:xlink="http://www.w3.org/1999/xlink" xml:space="preserve" xmlns:serif="http://www.serif.com/" style="fill-rule:evenodd;clip-rule:evenodd;stroke-linejoin:round;stroke-miterlimit:1.41421;"><g id="block_lab_wpadmin_icon_newfields"><path d="M125.373,0.268l1.895,0.785l94.853,54.763c1.664,1.277 3.131,2.794 3.661,4.771c0.177,0.66 0.179,1.356 0.268,2.033l0,109.527c-0.274,2.079 -0.855,4.109 -2.302,5.556c-0.483,0.483 -1.084,0.832 -1.627,1.249l-94.853,54.763c-1.937,0.802 -3.985,1.314 -5.962,0.785c-0.66,-0.177 -1.263,-0.524 -1.895,-0.785l-94.852,-54.763c-1.664,-1.277 -3.132,-2.795 -3.661,-4.771c-0.177,-0.661 -0.179,-1.356 -0.268,-2.034l0,-109.527c0.274,-2.079 0.854,-4.108 2.301,-5.555c0.484,-0.484 1.085,-0.833 1.628,-1.249l94.852,-54.763c1.89,-0.783 1.901,-0.786 3.929,-1.053c0.678,0.089 1.356,0.178 2.033,0.268Z" style="fill:#f2eefd;"/><g><path d="M194.34,127.506c0,-5.519 -4.481,-10 -10,-10l-122,0c-5.519,0 -10,4.481 -10,10l0,2c0,5.519 4.481,10 10,10l122,0c5.519,0 10,-4.481 10,-10l0,-2Z" style="fill:#e6d6ef;stroke:#7d5dec;stroke-width:2px;"/><path d="M179.719,122.59l1.584,-1.584l5.537,5.528l-1.593,1.584c-0.914,-0.592 -2.159,-0.496 -2.969,0.313l-0.652,0.653c-0.801,0.81 -0.906,2.046 -0.305,2.969l-1.593,1.584l-2.098,-2.098l-2.437,2.429c-0.366,0.366 -2.943,2.359 -3.308,1.993c-0.366,-0.365 1.619,-2.951 1.984,-3.316l2.429,-2.429l-2.098,-2.107l1.593,-1.584c0.914,0.601 2.159,0.496 2.96,-0.313l0.653,-0.653c0.809,-0.801 0.914,-2.046 0.313,-2.969Z" style="fill:#7d5dec;fill-rule:nonzero;"/></g><g><path d="M194.34,160.506c0,-5.519 -4.481,-10 -10,-10l-122,0c-5.519,0 -10,4.481 -10,10l0,2c0,5.519 4.481,10 10,10l122,0c5.519,0 10,-4.481 10,-10l0,-2Z" style="fill:#e6d6ef;stroke:#7d5dec;stroke-width:2px;"/><path d="M179.564,160.74c-2.108,0 -2.535,-3.195 -2.535,-3.195c-0.251,-1.663 0.511,-3.539 2.507,-3.539c2.007,0 2.768,1.876 2.517,3.539c0,0 -0.38,3.195 -2.489,3.195Zm0,2.387l2.527,-1.691c2.219,0 4.198,2.164 4.198,4.208l0,2.312c0,0 -3.39,1.05 -6.725,1.05c-3.39,0 -6.724,-1.05 -6.724,-1.05l0,-2.312c0,-2.09 1.802,-4.161 4.152,-4.161l2.572,1.644Z" style="fill:#7d5dec;fill-rule:nonzero;"/></g><g><path d="M194.34,20.506c0,-5.519 -4.481,-10 -10,-10l-122,0c-5.519,0 -10,4.481 -10,10l0,70c0,5.519 4.481,10 10,10l122,0c5.519,0 10,-4.481 10,-10l0,-70Z" style="fill:#cfc1ff;stroke:#7d5dec;stroke-width:2px;stroke-linecap:round;stroke-miterlimit:1.5;"/><g><path d="M189.34,26.506c0,-5.519 -4.481,-10 -10,-10l-112,0c-5.519,0 -10,4.481 -10,10l0,2c0,5.519 4.481,10 10,10l112,0c5.519,0 10,-4.481 10,-10l0,-2Z" style="fill:#e6d6ef;stroke:#7d5dec;stroke-width:2px;stroke-linecap:round;stroke-miterlimit:1.5;"/><path d="M174.34,32.506l-5,-8l10,0l-5,8Z" style="fill:#7d5dec;"/></g><g><path d="M189.34,57.506c0,-5.519 -4.481,-10 -10,-10l-112,0c-5.519,0 -10,4.481 -10,10l0,2c0,5.519 4.481,10 10,10l112,0c5.519,0 10,-4.481 10,-10l0,-2Z" style="fill:#e6d6ef;stroke:#7d5dec;stroke-width:2px;"/><path d="M174.34,63.506l-5,-8l10,0l-5,8Z" style="fill:#7d5dec;"/></g><g><path d="M184.34,85.506c0,-4.139 -3.361,-7.5 -7.5,-7.5c-4.139,0 -7.5,3.361 -7.5,7.5c0,4.139 3.361,7.5 7.5,7.5c4.139,0 7.5,-3.361 7.5,-7.5Z" style="fill:#7d5dec;"/><path d="M172.527,84.381l3.188,0l0,-3.188l2.25,0l0,3.188l3.187,0l0,2.25l-3.187,0l0,3.187l-2.25,0l0,-3.187l-3.188,0l0,-2.25Z" style="fill:#e6d6ef;"/></g></g><g><g><path d="M94.044,192.932c0,-5.754 -4.672,-10.426 -10.426,-10.426l-20.852,0c-5.754,0 -10.426,4.672 -10.426,10.426l0,20.852c0,5.754 4.672,10.426 10.426,10.426l20.852,0c5.754,0 10.426,-4.672 10.426,-10.426l0,-20.852Z" style="fill:#e6d6ef;stroke:#7d5dec;stroke-width:2px;"/><path d="M62.428,190.858l21.528,0c0.958,0 1.736,0.778 1.736,1.736l0,21.528c0,0.958 -0.778,1.736 -1.736,1.736l-21.528,0c-0.958,0 -1.736,-0.778 -1.736,-1.736l0,-21.528c0,-0.958 0.778,-1.736 1.736,-1.736Zm20.486,22.222l0,-19.444l-19.444,0l0,19.444l19.444,0Zm-9.722,-15.277c0,-1.528 -1.25,-2.778 -2.778,-2.778c-1.528,0 -2.778,1.25 -2.778,2.778c0,1.527 1.25,2.777 2.778,2.777c1.528,0 2.778,-1.25 2.778,-2.777Zm4.167,6.944c0,0 0,-8.333 4.166,-8.333l0,13.889c0,0.763 -0.625,1.388 -1.389,1.388l-13.888,0c-0.764,0 -1.389,-0.625 -1.389,-1.388l0,-9.723c2.777,0 4.166,5.556 4.166,5.556c0,0 1.389,-4.167 4.167,-4.167c2.778,0 4.167,2.778 4.167,2.778Z" style="fill:#7d5dec;fill-rule:nonzero;"/></g><g><path d="M144.192,192.932c0,-5.754 -4.672,-10.426 -10.426,-10.426l-20.852,0c-5.754,0 -10.426,4.672 -10.426,10.426l0,20.852c0,5.754 4.672,10.426 10.426,10.426l20.852,0c5.754,0 10.426,-4.672 10.426,-10.426l0,-20.852Z" style="fill:#e6d6ef;stroke:#7d5dec;stroke-width:2px;"/><path d="M112.576,190.858l21.528,0c0.958,0 1.736,0.778 1.736,1.736l0,21.528c0,0.958 -0.778,1.736 -1.736,1.736l-21.528,0c-0.958,0 -1.736,-0.778 -1.736,-1.736l0,-21.528c0,-0.958 0.778,-1.736 1.736,-1.736Zm20.486,22.222l0,-19.444l-19.444,0l0,19.444l19.444,0Zm-9.722,-15.277c0,-1.528 -1.25,-2.778 -2.778,-2.778c-1.528,0 -2.778,1.25 -2.778,2.778c0,1.527 1.25,2.777 2.778,2.777c1.528,0 2.778,-1.25 2.778,-2.777Zm4.167,6.944c0,0 0,-8.333 4.166,-8.333l0,13.889c0,0.763 -0.625,1.388 -1.389,1.388l-13.889,0c-0.763,0 -1.388,-0.625 -1.388,-1.388l0,-9.723c2.777,0 4.166,5.556 4.166,5.556c0,0 1.389,-4.167 4.167,-4.167c2.778,0 4.167,2.778 4.167,2.778Z" style="fill:#7d5dec;fill-rule:nonzero;"/></g><path d="M194.34,192.932c0,-5.754 -4.672,-10.426 -10.426,-10.426l-20.852,0c-5.755,0 -10.426,4.672 -10.426,10.426l0,20.852c0,5.754 4.671,10.426 10.426,10.426l20.852,0c5.754,0 10.426,-4.672 10.426,-10.426l0,-20.852Z" style="fill:#f9f5fb;stroke:#e6d6ef;stroke-width:2px;stroke-dasharray:8,4,0,0;"/></g><circle cx="215.879" cy="31.879" r="6.879" style="fill:#ffc800;"/><path d="M20.206,176.523l0,-7.19c0,-1.413 1.147,-2.56 2.56,-2.56c1.413,0 2.56,1.147 2.56,2.56l0,7.19l7.19,0c1.413,0 2.56,1.147 2.56,2.56c0,1.413 -1.147,2.56 -2.56,2.56l-7.19,0l0,7.19c0,1.413 -1.147,2.56 -2.56,2.56c-1.413,0 -2.56,-1.147 -2.56,-2.56l0,-7.19l-7.19,0c-1.413,0 -2.56,-1.147 -2.56,-2.56c0,-1.413 1.147,-2.56 2.56,-2.56l7.19,0Z" style="fill:#f07;"/><path d="M4.998,152.998l0,-3.686c0,-0.724 0.588,-1.312 1.312,-1.312c0.724,0 1.312,0.588 1.312,1.312l0,3.686l3.686,0c0.724,0 1.312,0.588 1.312,1.312c0,0.724 -0.588,1.312 -1.312,1.312l-3.686,0l0,3.686c0,0.724 -0.588,1.312 -1.312,1.312c-0.724,0 -1.312,-0.588 -1.312,-1.312l0,-3.686l-3.686,0c-0.724,0 -1.312,-0.588 -1.312,-1.312c0,-0.724 0.588,-1.312 1.312,-1.312l3.686,0Z" style="fill:#ffc800;"/><circle cx="230.339" cy="67.374" r="4.626" style="fill:#ff1482;"/><circle cx="234.965" cy="34.146" r="2.267" style="fill:#f07;"/><circle cx="5.573" cy="192.017" r="3.094" style="fill:#ffc800;"/></g></svg>