<?xml version="1.0" encoding="UTF-8" standalone="no"?><!DOCTYPE svg PUBLIC "-//W3C//DTD SVG 1.1//EN" "http://www.w3.org/Graphics/SVG/1.1/DTD/svg11.dtd"><svg width="100%" height="100%" viewBox="0 0 244 236" version="1.1" xmlns="http://www.w3.org/2000/svg" xmlns:xlink="http://www.w3.org/1999/xlink" xml:space="preserve" xmlns:serif="http://www.serif.com/" style="fill-rule:evenodd;clip-rule:evenodd;stroke-linejoin:round;stroke-miterlimit:1.41421;"><g id="block_lab_wpadmin_icon_newfields"><path d="M125.534,0.762l1.895,0.785l94.852,54.763c1.664,1.277 3.132,2.794 3.661,4.771c0.177,0.66 0.179,1.356 0.268,2.034l0,109.526c-0.274,2.079 -0.854,4.109 -2.301,5.556c-0.484,0.483 -1.085,0.832 -1.628,1.249l-94.852,54.763c-1.938,0.802 -3.986,1.314 -5.963,0.785c-0.66,-0.177 -1.263,-0.524 -1.895,-0.785l-94.852,-54.763c-1.664,-1.277 -3.132,-2.795 -3.661,-4.771c-0.177,-0.661 -0.179,-1.356 -0.268,-2.034l0,-109.526c0.274,-2.08 0.854,-4.109 2.301,-5.556c0.484,-0.484 1.085,-0.833 1.628,-1.249l94.852,-54.763c1.89,-0.783 1.902,-0.786 3.929,-1.053c0.678,0.089 1.356,0.179 2.034,0.268Z" style="fill:#f2eefd;"/><g><path d="M194.5,128c0,-5.519 -4.481,-10 -10,-10l-122,0c-5.519,0 -10,4.481 -10,10l0,2c0,5.519 4.481,10 10,10l122,0c5.519,0 10,-4.481 10,-10l0,-2Z" style="fill:#e6d6ef;stroke:#7d5dec;stroke-width:2px;"/><path d="M179.879,123.084l1.585,-1.584l5.536,5.528l-1.593,1.584c-0.914,-0.592 -2.159,-0.496 -2.968,0.313l-0.653,0.653c-0.801,0.81 -0.906,2.046 -0.305,2.969l-1.593,1.584l-2.098,-2.098l-2.437,2.429c-0.366,0.366 -2.943,2.359 -3.308,1.993c-0.366,-0.365 1.619,-2.951 1.984,-3.316l2.429,-2.429l-2.098,-2.107l1.593,-1.584c0.914,0.601 2.159,0.496 2.96,-0.313l0.653,-0.653c0.809,-0.801 0.914,-2.046 0.313,-2.969Z" style="fill:#7d5dec;fill-rule:nonzero;"/></g><g><path d="M194.5,161c0,-5.519 -4.481,-10 -10,-10l-122,0c-5.519,0 -10,4.481 -10,10l0,2c0,5.519 4.481,10 10,10l122,0c5.519,0 10,-4.481 10,-10l0,-2Z" style="fill:#e6d6ef;stroke:#7d5dec;stroke-width:2px;"/><path d="M179.724,161.234c-2.108,0 -2.535,-3.195 -2.535,-3.195c-0.251,-1.663 0.511,-3.539 2.508,-3.539c2.006,0 2.767,1.876 2.517,3.539c0,0 -0.381,3.195 -2.49,3.195Zm0,2.387l2.527,-1.691c2.22,0 4.198,2.164 4.198,4.208l0,2.312c0,0 -3.39,1.05 -6.725,1.05c-3.39,0 -6.724,-1.05 -6.724,-1.05l0,-2.312c0,-2.09 1.802,-4.161 4.152,-4.161l2.572,1.644Z" style="fill:#7d5dec;fill-rule:nonzero;"/></g><g><path d="M194.5,21c0,-5.519 -4.481,-10 -10,-10l-122,0c-5.519,0 -10,4.481 -10,10l0,70c0,5.519 4.481,10 10,10l122,0c5.519,0 10,-4.481 10,-10l0,-70Z" style="fill:#cfc1ff;stroke:#7d5dec;stroke-width:2px;stroke-linecap:round;stroke-miterlimit:1.5;"/><g><path d="M189.5,27c0,-5.519 -4.481,-10 -10,-10l-112,0c-5.519,0 -10,4.481 -10,10l0,2c0,5.519 4.481,10 10,10l112,0c5.519,0 10,-4.481 10,-10l0,-2Z" style="fill:#e6d6ef;stroke:#7d5dec;stroke-width:2px;stroke-linecap:round;stroke-miterlimit:1.5;"/><path d="M174.5,33l-5,-8l10,0l-5,8Z" style="fill:#7d5dec;"/></g><g><path d="M189.5,58c0,-5.519 -4.481,-10 -10,-10l-112,0c-5.519,0 -10,4.481 -10,10l0,2c0,5.519 4.481,10 10,10l112,0c5.519,0 10,-4.481 10,-10l0,-2Z" style="fill:#e6d6ef;stroke:#7d5dec;stroke-width:2px;"/><path d="M174.5,64l-5,-8l10,0l-5,8Z" style="fill:#7d5dec;"/></g><g><path d="M184.5,86c0,-4.139 -3.361,-7.5 -7.5,-7.5c-4.139,0 -7.5,3.361 -7.5,7.5c0,4.139 3.361,7.5 7.5,7.5c4.139,0 7.5,-3.361 7.5,-7.5Z" style="fill:#7d5dec;"/><path d="M172.687,84.875l3.188,0l0,-3.187l2.25,0l0,3.187l3.187,0l0,2.25l-3.187,0l0,3.187l-2.25,0l0,-3.187l-3.188,0l0,-2.25Z" style="fill:#e6d6ef;"/></g></g><g><g><path d="M94.204,193.426c0,-5.754 -4.672,-10.426 -10.426,-10.426l-20.852,0c-5.754,0 -10.426,4.672 -10.426,10.426l0,20.852c0,5.754 4.672,10.426 10.426,10.426l20.852,0c5.754,0 10.426,-4.672 10.426,-10.426l0,-20.852Z" style="fill:#e6d6ef;stroke:#7d5dec;stroke-width:2px;"/><path d="M62.588,191.352l21.528,0c0.958,0 1.736,0.778 1.736,1.736l0,21.528c0,0.958 -0.778,1.736 -1.736,1.736l-21.528,0c-0.958,0 -1.736,-0.778 -1.736,-1.736l0,-21.528c0,-0.958 0.778,-1.736 1.736,-1.736Zm20.486,22.222l0,-19.444l-19.444,0l0,19.444l19.444,0Zm-9.722,-15.277c0,-1.528 -1.25,-2.778 -2.778,-2.778c-1.527,0 -2.777,1.25 -2.777,2.778c0,1.527 1.25,2.777 2.777,2.777c1.528,0 2.778,-1.25 2.778,-2.777Zm4.167,6.944c0,0 0,-8.333 4.166,-8.333l0,13.889c0,0.763 -0.625,1.388 -1.388,1.388l-13.889,0c-0.764,0 -1.389,-0.625 -1.389,-1.388l0,-9.723c2.778,0 4.166,5.556 4.166,5.556c0,0 1.389,-4.167 4.167,-4.167c2.778,0 4.167,2.778 4.167,2.778Z" style="fill:#7d5dec;fill-rule:nonzero;"/></g><g><path d="M144.352,193.426c0,-5.754 -4.672,-10.426 -10.426,-10.426l-20.852,0c-5.754,0 -10.426,4.672 -10.426,10.426l0,20.852c0,5.754 4.672,10.426 10.426,10.426l20.852,0c5.754,0 10.426,-4.672 10.426,-10.426l0,-20.852Z" style="fill:#e6d6ef;stroke:#7d5dec;stroke-width:2px;"/><path d="M112.736,191.352l21.528,0c0.958,0 1.736,0.778 1.736,1.736l0,21.528c0,0.958 -0.778,1.736 -1.736,1.736l-21.528,0c-0.958,0 -1.736,-0.778 -1.736,-1.736l0,-21.528c0,-0.958 0.778,-1.736 1.736,-1.736Zm20.486,22.222l0,-19.444l-19.444,0l0,19.444l19.444,0Zm-9.722,-15.277c0,-1.528 -1.25,-2.778 -2.778,-2.778c-1.528,0 -2.778,1.25 -2.778,2.778c0,1.527 1.25,2.777 2.778,2.777c1.528,0 2.778,-1.25 2.778,-2.777Zm4.167,6.944c0,0 0,-8.333 4.166,-8.333l0,13.889c0,0.763 -0.625,1.388 -1.389,1.388l-13.888,0c-0.764,0 -1.389,-0.625 -1.389,-1.388l0,-9.723c2.777,0 4.166,5.556 4.166,5.556c0,0 1.389,-4.167 4.167,-4.167c2.778,0 4.167,2.778 4.167,2.778Z" style="fill:#7d5dec;fill-rule:nonzero;"/></g><path d="M194.5,193.426c0,-5.754 -4.672,-10.426 -10.426,-10.426l-20.852,0c-5.754,0 -10.426,4.672 -10.426,10.426l0,20.852c0,5.754 4.672,10.426 10.426,10.426l20.852,0c5.754,0 10.426,-4.672 10.426,-10.426l0,-20.852Z" style="fill:#f9f5fb;stroke:#e6d6ef;stroke-width:2px;stroke-dasharray:8,4,0,0;"/></g><circle cx="226.21" cy="46.319" r="5.5" style="fill:#8667ec;"/><path d="M12,184.713l0,-4.213c0,-0.828 0.672,-1.5 1.5,-1.5c0.828,0 1.5,0.672 1.5,1.5l0,4.213l4.213,0c0.828,0 1.5,0.672 1.5,1.5c0,0.828 -0.672,1.5 -1.5,1.5l-4.213,0l0,4.213c0,0.828 -0.672,1.5 -1.5,1.5c-0.828,0 -1.5,-0.672 -1.5,-1.5l0,-4.213l-4.213,0c-0.828,0 -1.5,-0.672 -1.5,-1.5c0,-0.828 0.672,-1.5 1.5,-1.5l4.213,0Z" style="fill:#8667ec;"/><path d="M3.089,170.929l0,-2.16c0,-0.424 0.344,-0.769 0.769,-0.769c0.424,0 0.768,0.345 0.768,0.769l0,2.16l2.16,0c0.424,0 0.769,0.344 0.769,0.768c0,0.425 -0.345,0.769 -0.769,0.769l-2.16,0l0,2.16c0,0.424 -0.344,0.769 -0.768,0.769c-0.425,0 -0.769,-0.345 -0.769,-0.769l0,-2.16l-2.16,0c-0.424,0 -0.769,-0.344 -0.769,-0.769c0,-0.424 0.345,-0.768 0.769,-0.768l2.16,0Z" style="fill:#8667ec;"/><circle cx="237.771" cy="74.698" r="3.698" style="fill:#8667ec;"/><circle cx="241.47" cy="48.131" r="1.813" style="fill:#8667ec;"/><circle cx="3.426" cy="193.792" r="1.813" style="fill:#8667ec;"/></g></svg>