<?xml version="1.0" encoding="UTF-8" standalone="no"?>
<!DOCTYPE svg PUBLIC "-//W3C//DTD SVG 1.1//EN" "http://www.w3.org/Graphics/SVG/1.1/DTD/svg11.dtd">
<svg width="100%" height="100%" viewBox="0 0 1280 1280" version="1.1" xmlns="http://www.w3.org/2000/svg" xmlns:xlink="http://www.w3.org/1999/xlink" xml:space="preserve" xmlns:serif="http://www.serif.com/" style="fill-rule:evenodd;clip-rule:evenodd;stroke-linecap:round;stroke-linejoin:round;stroke-miterlimit:1.5;">
    <g id="block_lab_pro_image" transform="matrix(4.79908,0,0,4.79908,-1152.29,-2394.81)">
        <g transform="matrix(1,0,0,1,-66.0481,-28)">
            <g>
                <g>
                    <path d="M425.981,660L400,645L425.981,630.495L425.981,660Z" style="fill:none;stroke:rgb(106,75,214);stroke-width:3.13px;"/>
                    <path d="M477.942,570L400,615L400,645L425.981,630.495L425.981,660L451.962,645L451.962,615L477.942,600L477.942,570Z" style="fill:none;stroke:rgb(106,75,214);stroke-width:3.13px;"/>
                    <g transform="matrix(0.208373,0,0,0.208373,306.155,527.015)">
                        <path d="M450.367,566.221L325.684,494.234L325.684,350.262L699.735,134.304L824.418,206.29L450.367,422.248L450.367,566.221Z" style="fill:none;stroke:rgb(106,75,214);stroke-width:15px;"/>
                    </g>
                </g>
            </g>
        </g>
        <g transform="matrix(1,0,0,1,-38.9808,77.2473)">
            <path d="M451.962,645L425.981,630.495L425.981,600.495L451.962,615L451.962,645Z" style="fill:none;stroke:rgb(106,75,214);stroke-width:3.13px;"/>
            <path d="M451.962,615L425.981,600.495L451.962,585.495L477.942,600.495L451.962,615Z" style="fill:none;stroke:rgb(106,75,214);stroke-width:3.13px;"/>
            <path d="M451.962,555L451.962,585.495L477.942,600.495L477.942,570L451.962,555Z" style="fill:none;stroke:rgb(106,75,214);stroke-width:3.13px;"/>
            <g transform="matrix(0.208373,0,0,0.208373,279.088,421.767)">
                <path d="M887.402,606.041L954.316,567.408L1079,639.394L1079,929.712L829.633,1073.68L829.633,927.338L954.316,857.726L954.316,711.38L829.633,639.394L887.402,606.041Z" style="fill:none;stroke:rgb(106,75,214);stroke-width:15px;"/>
            </g>
        </g>
        <g transform="matrix(1,0,0,1,31.9904,-52.2527)">
            <path d="M327.942,730L301.962,715L301.962,745L327.942,730Z" style="fill:none;stroke:rgb(106,75,214);stroke-width:3.13px;"/>
            <path d="M250,775L250,715L275.981,730L275.981,790L250,775Z" style="fill:none;stroke:rgb(106,75,214);stroke-width:3.13px;"/>
            <path d="M275.981,790L275.981,730L250,715L275.981,700L301.962,715L301.962,745L327.942,730L327.942,760L275.981,790" style="fill:none;stroke:rgb(106,75,214);stroke-width:3.13px;"/>
        </g>
    </g>
</svg>
