<?xml version="1.0" encoding="UTF-8" standalone="no"?><!DOCTYPE svg PUBLIC "-//W3C//DTD SVG 1.1//EN" "http://www.w3.org/Graphics/SVG/1.1/DTD/svg11.dtd"><svg width="100%" height="100%" viewBox="0 0 239 236" version="1.1" xmlns="http://www.w3.org/2000/svg" xmlns:xlink="http://www.w3.org/1999/xlink" xml:space="preserve" xmlns:serif="http://www.serif.com/" style="fill-rule:evenodd;clip-rule:evenodd;stroke-linecap:round;stroke-linejoin:round;stroke-miterlimit:1.5;"><g id="block_lab_wpadmin_icon_features"><path d="M118.937,0.268l1.895,0.785l94.853,54.763c1.664,1.277 3.131,2.794 3.661,4.771c0.177,0.66 0.178,1.356 0.267,2.033l0,109.527c-0.273,2.079 -0.854,4.109 -2.301,5.556c-0.483,0.483 -1.085,0.832 -1.627,1.249l-94.853,54.763c-1.938,0.802 -3.986,1.314 -5.962,0.785c-0.661,-0.177 -1.264,-0.524 -1.895,-0.785l-94.853,-54.763c-1.664,-1.277 -3.131,-2.795 -3.661,-4.771c-0.177,-0.661 -0.178,-1.356 -0.268,-2.034l0,-109.527c0.274,-2.079 0.855,-4.108 2.302,-5.555c0.483,-0.484 1.085,-0.833 1.627,-1.249l94.853,-54.763c1.889,-0.783 1.901,-0.786 3.928,-1.053c0.678,0.089 1.356,0.178 2.034,0.268Z" style="fill:#f2eefd;"/><circle cx="232.052" cy="176.88" r="6.879" style="fill:#ffc800;"/><path d="M14.87,35.751l0,-7.19c0,-1.413 -1.147,-2.56 -2.56,-2.56c-1.413,0 -2.56,1.147 -2.56,2.56l0,7.19l-7.19,0c-1.413,0 -2.56,1.147 -2.56,2.56c0,1.413 1.147,2.56 2.56,2.56l7.19,0l0,7.19c0,1.413 1.147,2.56 2.56,2.56c1.413,0 2.56,-1.147 2.56,-2.56l0,-7.19l7.19,0c1.413,0 2.56,-1.147 2.56,-2.56c0,-1.413 -1.147,-2.56 -2.56,-2.56l-7.19,0Z" style="fill:#eb3a8c;"/><path d="M226.331,203.885l0,3.685c0,0.725 -0.588,1.313 -1.312,1.313c-0.725,0 -1.313,-0.588 -1.313,-1.313l0,-3.685l-3.685,0c-0.725,0 -1.313,-0.588 -1.313,-1.312c0,-0.725 0.588,-1.313 1.313,-1.313l3.685,0l0,-3.685c0,-0.725 0.588,-1.313 1.313,-1.313c0.724,0 1.312,0.588 1.312,1.313l0,3.685l3.685,0c0.725,0 1.313,0.588 1.313,1.313c0,0.724 -0.588,1.312 -1.313,1.312l-3.685,0Z" style="fill:#ffc800;"/><circle cx="8.021" cy="75.251" r="4.626" style="fill:#eb3a8c;"/><circle cx="212.966" cy="174.613" r="2.267" style="fill:#eb3a8c;"/><circle cx="25.293" cy="64.457" r="3.094" style="fill:#ffc800;"/><g><path d="M95.667,157.317c0.489,-1.828 -0.597,-3.709 -2.424,-4.199c-1.828,-0.489 -3.709,0.597 -4.199,2.424l-6.62,24.707c-0.49,1.827 0.597,3.709 2.424,4.198c1.828,0.49 3.709,-0.596 4.199,-2.424l6.62,-24.706Z" style="fill:#7d5dec;"/><path d="M118.591,163.459c0.489,-1.827 -0.597,-3.709 -2.424,-4.198c-1.828,-0.49 -3.709,0.596 -4.199,2.424l-6.62,24.706c-0.49,1.828 0.597,3.709 2.424,4.199c1.828,0.49 3.709,-0.597 4.198,-2.424l6.621,-24.707Z" style="fill:#7d5dec;"/><path d="M72.595,175.159l-0.748,-0.201c-1.828,-0.49 -2.914,-2.371 -2.424,-4.199c0.489,-1.827 2.37,-2.913 4.198,-2.424l51.93,13.915c1.828,0.49 2.914,2.371 2.424,4.199c-0.49,1.827 -2.371,2.913 -4.198,2.424l-0.749,-0.201l-1.502,5.603l-0.044,0.163c-3.289,11.973 -14.44,19.722 -26.376,19.163l-4.4,16.42c-0.798,2.978 -3.864,4.749 -6.843,3.951c-2.979,-0.798 -4.749,-3.865 -3.951,-6.844l4.4,-16.419c-10.665,-5.509 -16.451,-17.882 -13.218,-29.947l1.501,-5.603Z" style="fill:#cfc1ff;stroke:#7d5dec;stroke-width:2px;"/></g><g><path d="M208.617,121.12c0,-2.759 -2.241,-5 -5,-5l-63.839,0c-2.759,0 -5,2.241 -5,5l0,40.017c0,2.76 2.241,5 5,5l63.839,0c2.759,0 5,-2.24 5,-5l0,-40.017Z" style="fill:#7d5dec;"/><path d="M206.156,130.427c0,-1.104 -0.897,-2 -2,-2l-64.916,0c-1.104,0 -2,0.896 -2,2l0,30.809c0,1.104 0.896,2 2,2l64.916,0c1.103,0 2,-0.896 2,-2l0,-30.809Z" style="fill:#e6d6ef;"/><path d="M144.2,144.894l0,6.72l-2.038,0l0,-10.485l1.58,0l5.465,6.881l0,-6.867l2.037,0l0,10.471l-1.654,0l-5.39,-6.72Z" style="fill:#7d5dec;fill-rule:nonzero;"/><path d="M156.413,141.129l1.802,0l3.987,10.485l-2.097,0l-0.975,-2.614l-3.662,0l-0.96,2.614l-2.097,0l4.002,-10.485Zm2.348,6.438l-1.447,-4.12l-1.506,4.12l2.953,0Z" style="fill:#7d5dec;fill-rule:nonzero;"/><path d="M171.904,151.614l0,-6.941l-2.702,5.169l-1.108,0l-2.702,-5.169l0,6.941l-2.038,0l0,-10.485l2.186,0l3.101,5.966l3.13,-5.966l2.171,0l0,10.485l-2.038,0Z" style="fill:#7d5dec;fill-rule:nonzero;"/><path d="M183.408,149.827l0,1.787l-7.28,0l0,-10.485l7.148,0l0,1.787l-5.11,0l0,2.525l4.415,0l0,1.654l-4.415,0l0,2.732l5.242,0Z" style="fill:#7d5dec;fill-rule:nonzero;"/></g><g><path d="M99.847,31.338l0.421,8.035l7.772,2.082l-7.512,2.884l0.421,8.034l-5.063,-6.252l-7.511,2.883l4.382,-6.748l-5.064,-6.253l7.772,2.083l4.382,-6.748Z" style="fill:#7d5dec;stroke:#7d5dec;stroke-width:2px;"/><path d="M125.471,38.204l0.421,8.035l7.772,2.082l-7.511,2.884l0.421,8.034l-5.064,-6.252l-7.511,2.883l4.382,-6.748l-5.063,-6.253l7.771,2.083l4.382,-6.748Z" style="fill:#7d5dec;stroke:#7d5dec;stroke-width:2px;"/><path d="M151.096,45.07l0.421,8.035l7.771,2.082l-7.511,2.884l0.421,8.034l-5.063,-6.252l-7.512,2.883l4.382,-6.748l-5.063,-6.253l7.772,2.083l4.382,-6.748Z" style="fill:#7d5dec;stroke:#7d5dec;stroke-width:2px;"/><path d="M176.72,51.936l0.421,8.035l7.772,2.082l-7.512,2.884l0.421,8.034l-5.063,-6.252l-7.512,2.883l4.383,-6.748l-5.064,-6.253l7.772,2.083l4.382,-6.748Z" style="fill:#7d5dec;stroke:#7d5dec;stroke-width:2px;"/><path d="M202.344,58.802l0.421,8.035l7.772,2.082l-7.511,2.884l0.421,8.034l-5.064,-6.252l-7.511,2.883l4.382,-6.748l-5.064,-6.253l7.772,2.083l4.382,-6.748Z" style="fill:#cfc1ff;stroke:#7d5dec;stroke-width:2px;"/></g><g><path d="M57.183,73.137c4.24,-0.925 8.434,1.767 9.359,6.007c0.925,4.24 -1.767,8.434 -6.008,9.359c-4.24,0.925 -8.433,-1.767 -9.358,-6.007c-0.925,-4.241 1.767,-8.434 6.007,-9.359Z" style="fill:#e6d6ef;stroke:#7d5dec;stroke-width:2px;"/><path d="M97.198,116.376c-4.24,0.925 -6.932,5.118 -6.007,9.359c0.925,4.24 5.118,6.932 9.358,6.007c4.241,-0.925 6.932,-5.118 6.007,-9.359c-0.924,-4.24 -5.118,-6.932 -9.358,-6.007Z" style="fill:#e6d6ef;stroke:#7d5dec;stroke-width:2px;"/><path d="M60.534,88.503c0.223,13.028 -26.061,22.441 -21.898,39.819" style="fill:none;stroke:#7d5dec;stroke-width:2px;"/><path d="M60.534,88.503c5.223,11.938 33.04,9.55 36.492,27.084" style="fill:none;stroke:#7d5dec;stroke-width:2px;"/><path d="M46.834,103.285c-2.133,0.465 -3.486,2.574 -3.021,4.706c0.465,2.133 2.574,3.487 4.707,3.022c2.132,-0.466 3.486,-2.575 3.021,-4.707c-0.465,-2.133 -2.574,-3.487 -4.707,-3.021Z" style="fill:#7d5dec;"/><path d="M68.841,126.585c-0.463,-2.12 -2.56,-3.466 -4.68,-3.003l-29.195,6.367c-2.12,0.463 -3.466,2.56 -3.003,4.68l1.675,7.683c0.463,2.12 2.559,3.466 4.68,3.003l29.195,-6.368c2.12,-0.462 3.466,-2.559 3.003,-4.679l-1.675,-7.683Z" style="fill:#e6d6ef;stroke:#7d5dec;stroke-width:2px;"/></g><path d="M111.629,93.875l4.991,-7.54l-7.54,-2.336l1.912,-6.159l7.752,3.292l-0.531,-8.177l7.539,0l-0.531,8.177l7.646,-3.292l1.911,6.159l-7.433,2.336l4.991,7.54l-5.522,3.61l-4.778,-7.964l-4.885,7.964l-5.522,-3.61Z" style="fill:#7d5dec;fill-rule:nonzero;"/></g></svg>