<?xml version="1.0" encoding="UTF-8" standalone="no"?><!DOCTYPE svg PUBLIC "-//W3C//DTD SVG 1.1//EN" "http://www.w3.org/Graphics/SVG/1.1/DTD/svg11.dtd"><svg width="100%" height="100%" viewBox="0 0 794 1091" version="1.1" xmlns="http://www.w3.org/2000/svg" xmlns:xlink="http://www.w3.org/1999/xlink" xml:space="preserve" xmlns:serif="http://www.serif.com/" style="fill-rule:evenodd;clip-rule:evenodd;stroke-linecap:round;stroke-linejoin:round;stroke-miterlimit:1.5;"><g id="block_lab_early_access_pass"><path d="M785.558,303.32c4.369,-16.306 -5.322,-33.092 -21.629,-37.461l-506.968,-135.842c-16.307,-4.369 -33.093,5.322 -37.462,21.628l-203.916,761.026c-4.37,16.307 5.322,33.093 21.628,37.462l506.969,135.842c16.306,4.369 33.092,-5.322 37.461,-21.629l203.917,-761.026Z" style="fill:#f2eefd;"/><g><clipPath id="_clip1"><path d="M785.558,303.32c4.369,-16.306 -5.322,-33.092 -21.629,-37.461l-506.968,-135.842c-16.307,-4.369 -33.093,5.322 -37.462,21.628l-203.916,761.026c-4.37,16.307 5.322,33.093 21.628,37.462l506.969,135.842c16.306,4.369 33.092,-5.322 37.461,-21.629l203.917,-761.026Z"/></clipPath><g clip-path="url(#_clip1)"><g opacity="0.3"><g><g><path d="M71.999,470.999l-10.366,-10.366l3.794,-14.161l14.161,-3.794l10.366,10.366l-3.794,14.161l-14.161,3.794Z" style="fill:none;stroke:#7d5dec;stroke-width:4px;"/><path d="M71.999,470.999l3.795,-14.161" style="fill:none;stroke:#7d5dec;stroke-width:4px;"/><path d="M89.954,453.044l-14.16,3.794l-10.367,-10.366" style="fill:none;stroke:#7d5dec;stroke-width:4px;"/></g><g><path d="M142.844,537.03l-10.366,-10.366l3.794,-14.16l14.161,-3.794l10.366,10.366l-3.795,14.16l-14.16,3.794Z" style="fill:none;stroke:#7d5dec;stroke-width:4px;"/><path d="M142.844,537.03l3.794,-14.16" style="fill:none;stroke:#7d5dec;stroke-width:4px;"/><path d="M160.799,519.076l-14.161,3.794l-10.366,-10.366" style="fill:none;stroke:#7d5dec;stroke-width:4px;"/></g><g><path d="M213.689,603.062l-10.366,-10.366l3.794,-14.16l14.16,-3.795l10.366,10.366l-3.794,14.161l-14.16,3.794Z" style="fill:none;stroke:#7d5dec;stroke-width:4px;"/><path d="M213.689,603.062l3.794,-14.16" style="fill:none;stroke:#7d5dec;stroke-width:4px;"/><path d="M231.643,585.107l-14.16,3.795l-10.366,-10.366" style="fill:none;stroke:#7d5dec;stroke-width:4px;"/></g><g><path d="M284.533,669.094l-10.366,-10.366l3.795,-14.161l14.16,-3.794l10.366,10.366l-3.794,14.16l-14.161,3.795Z" style="fill:none;stroke:#7d5dec;stroke-width:4px;"/><path d="M284.533,669.094l3.795,-14.161" style="fill:none;stroke:#7d5dec;stroke-width:4px;"/><path d="M302.488,651.139l-14.16,3.794l-10.366,-10.366" style="fill:none;stroke:#7d5dec;stroke-width:4px;"/></g><g><path d="M355.378,735.125l-10.366,-10.366l3.794,-14.16l14.161,-3.795l10.366,10.367l-3.794,14.16l-14.161,3.794Z" style="fill:none;stroke:#7d5dec;stroke-width:4px;"/><path d="M355.378,735.125l3.794,-14.16" style="fill:none;stroke:#7d5dec;stroke-width:4px;"/><path d="M373.333,717.171l-14.161,3.794l-10.366,-10.366" style="fill:none;stroke:#7d5dec;stroke-width:4px;"/></g><g><path d="M426.223,801.157l-10.366,-10.366l3.794,-14.161l14.16,-3.794l10.367,10.366l-3.795,14.161l-14.16,3.794Z" style="fill:none;stroke:#7d5dec;stroke-width:4px;"/><path d="M426.223,801.157l3.794,-14.161" style="fill:none;stroke:#7d5dec;stroke-width:4px;"/><path d="M444.178,783.202l-14.161,3.794l-10.366,-10.366" style="fill:none;stroke:#7d5dec;stroke-width:4px;"/></g><g><path d="M497.068,867.188l-10.366,-10.366l3.794,-14.16l14.16,-3.794l10.366,10.366l-3.794,14.16l-14.16,3.794Z" style="fill:none;stroke:#7d5dec;stroke-width:4px;"/><path d="M497.068,867.188l3.794,-14.16" style="fill:none;stroke:#7d5dec;stroke-width:4px;"/><path d="M515.022,849.234l-14.16,3.794l-10.366,-10.366" style="fill:none;stroke:#7d5dec;stroke-width:4px;"/></g><g><path d="M567.912,933.22l-10.366,-10.366l3.794,-14.16l14.161,-3.795l10.366,10.366l-3.794,14.161l-14.161,3.794Z" style="fill:none;stroke:#7d5dec;stroke-width:4px;"/><path d="M567.912,933.22l3.795,-14.16" style="fill:none;stroke:#7d5dec;stroke-width:4px;"/><path d="M585.867,915.265l-14.16,3.795l-10.367,-10.366" style="fill:none;stroke:#7d5dec;stroke-width:4px;"/></g><g><path d="M638.757,999.252l-10.366,-10.366l3.794,-14.161l14.161,-3.794l10.366,10.366l-3.795,14.16l-14.16,3.795Z" style="fill:none;stroke:#7d5dec;stroke-width:4px;"/><path d="M638.757,999.252l3.794,-14.161" style="fill:none;stroke:#7d5dec;stroke-width:4px;"/><path d="M656.712,981.297l-14.161,3.794l-10.366,-10.366" style="fill:none;stroke:#7d5dec;stroke-width:4px;"/></g><g><path d="M709.602,1065.28l-10.366,-10.366l3.794,-14.16l14.16,-3.794l10.366,10.366l-3.794,14.16l-14.16,3.794Z" style="fill:none;stroke:#7d5dec;stroke-width:4px;"/><path d="M709.602,1065.28l3.794,-14.16" style="fill:none;stroke:#7d5dec;stroke-width:4px;"/><path d="M727.556,1047.33l-14.16,3.794l-10.366,-10.366" style="fill:none;stroke:#7d5dec;stroke-width:4px;"/></g></g><g><g><path d="M423.214,151.532l-10.366,-10.366l3.794,-14.16l14.16,-3.795l10.366,10.366l-3.794,14.161l-14.16,3.794Z" style="fill:none;stroke:#7d5dec;stroke-width:4px;"/><path d="M423.214,151.532l3.794,-14.16" style="fill:none;stroke:#7d5dec;stroke-width:4px;"/><path d="M441.168,133.577l-14.16,3.795l-10.366,-10.366" style="fill:none;stroke:#7d5dec;stroke-width:4px;"/></g><g><path d="M494.058,217.564l-10.366,-10.366l3.795,-14.161l14.16,-3.794l10.366,10.366l-3.794,14.16l-14.161,3.795Z" style="fill:none;stroke:#7d5dec;stroke-width:4px;"/><path d="M494.058,217.564l3.795,-14.161" style="fill:none;stroke:#7d5dec;stroke-width:4px;"/><path d="M512.013,199.609l-14.16,3.794l-10.366,-10.366" style="fill:none;stroke:#7d5dec;stroke-width:4px;"/></g><g><path d="M564.903,283.595l-10.366,-10.366l3.794,-14.16l14.161,-3.794l10.366,10.366l-3.795,14.16l-14.16,3.794Z" style="fill:none;stroke:#7d5dec;stroke-width:4px;"/><path d="M564.903,283.595l3.794,-14.16" style="fill:none;stroke:#7d5dec;stroke-width:4px;"/><path d="M582.858,265.641l-14.161,3.794l-10.366,-10.366" style="fill:none;stroke:#7d5dec;stroke-width:4px;"/></g><g><path d="M635.748,349.627l-10.366,-10.366l3.794,-14.161l14.16,-3.794l10.366,10.366l-3.794,14.161l-14.16,3.794Z" style="fill:none;stroke:#7d5dec;stroke-width:4px;"/><path d="M635.748,349.627l3.794,-14.16" style="fill:none;stroke:#7d5dec;stroke-width:4px;"/><path d="M653.702,331.672l-14.16,3.795l-10.366,-10.367" style="fill:none;stroke:#7d5dec;stroke-width:4px;"/></g><g><path d="M706.593,415.659l-10.367,-10.367l3.795,-14.16l14.16,-3.794l10.366,10.366l-3.794,14.16l-14.16,3.795Z" style="fill:none;stroke:#7d5dec;stroke-width:4px;"/><path d="M706.593,415.659l3.794,-14.161" style="fill:none;stroke:#7d5dec;stroke-width:4px;"/><path d="M724.547,397.704l-14.16,3.794l-10.366,-10.366" style="fill:none;stroke:#7d5dec;stroke-width:4px;"/></g><g><path d="M777.437,481.69l-10.366,-10.366l3.794,-14.16l14.161,-3.795l10.366,10.366l-3.794,14.161l-14.161,3.794Z" style="fill:none;stroke:#7d5dec;stroke-width:4px;"/><path d="M777.437,481.69l3.795,-14.16" style="fill:none;stroke:#7d5dec;stroke-width:4px;"/><path d="M795.392,463.735l-14.16,3.795l-10.367,-10.366" style="fill:none;stroke:#7d5dec;stroke-width:4px;"/></g></g><g><g><path d="M44.681,572.953l-10.366,-10.366l3.794,-14.16l14.16,-3.794l10.366,10.366l-3.794,14.16l-14.16,3.794Z" style="fill:none;stroke:#7d5dec;stroke-width:4px;"/><path d="M44.681,572.953l3.794,-14.16" style="fill:none;stroke:#7d5dec;stroke-width:4px;"/><path d="M62.635,554.999l-14.16,3.794l-10.366,-10.366" style="fill:none;stroke:#7d5dec;stroke-width:4px;"/></g><g><path d="M115.525,638.985l-10.366,-10.366l3.794,-14.16l14.161,-3.795l10.366,10.366l-3.794,14.161l-14.161,3.794Z" style="fill:none;stroke:#7d5dec;stroke-width:4px;"/><path d="M115.525,638.985l3.795,-14.16" style="fill:none;stroke:#7d5dec;stroke-width:4px;"/><path d="M133.48,621.03l-14.16,3.795l-10.367,-10.366" style="fill:none;stroke:#7d5dec;stroke-width:4px;"/></g><g><path d="M186.37,705.017l-10.366,-10.366l3.794,-14.161l14.161,-3.794l10.366,10.366l-3.795,14.16l-14.16,3.795Z" style="fill:none;stroke:#7d5dec;stroke-width:4px;"/><path d="M186.37,705.017l3.794,-14.161" style="fill:none;stroke:#7d5dec;stroke-width:4px;"/><path d="M204.325,687.062l-14.161,3.794l-10.366,-10.366" style="fill:none;stroke:#7d5dec;stroke-width:4px;"/></g><g><path d="M257.215,771.048l-10.366,-10.366l3.794,-14.16l14.16,-3.794l10.366,10.366l-3.794,14.16l-14.16,3.794Z" style="fill:none;stroke:#7d5dec;stroke-width:4px;"/><path d="M257.215,771.048l3.794,-14.16" style="fill:none;stroke:#7d5dec;stroke-width:4px;"/><path d="M275.169,753.094l-14.16,3.794l-10.366,-10.366" style="fill:none;stroke:#7d5dec;stroke-width:4px;"/></g><g><path d="M328.06,837.08l-10.367,-10.366l3.795,-14.161l14.16,-3.794l10.366,10.366l-3.794,14.161l-14.16,3.794Z" style="fill:none;stroke:#7d5dec;stroke-width:4px;"/><path d="M328.06,837.08l3.794,-14.16" style="fill:none;stroke:#7d5dec;stroke-width:4px;"/><path d="M346.014,819.125l-14.16,3.795l-10.366,-10.367" style="fill:none;stroke:#7d5dec;stroke-width:4px;"/></g><g><path d="M398.904,903.112l-10.366,-10.367l3.794,-14.16l14.161,-3.794l10.366,10.366l-3.794,14.16l-14.161,3.795Z" style="fill:none;stroke:#7d5dec;stroke-width:4px;"/><path d="M398.904,903.112l3.794,-14.161" style="fill:none;stroke:#7d5dec;stroke-width:4px;"/><path d="M416.859,885.157l-14.161,3.794l-10.366,-10.366" style="fill:none;stroke:#7d5dec;stroke-width:4px;"/></g><g><path d="M469.749,969.143l-10.366,-10.366l3.794,-14.16l14.16,-3.795l10.367,10.366l-3.795,14.161l-14.16,3.794Z" style="fill:none;stroke:#7d5dec;stroke-width:4px;"/><path d="M469.749,969.143l3.794,-14.16" style="fill:none;stroke:#7d5dec;stroke-width:4px;"/><path d="M487.704,951.188l-14.161,3.795l-10.366,-10.366" style="fill:none;stroke:#7d5dec;stroke-width:4px;"/></g><g><path d="M540.594,1035.17l-10.366,-10.366l3.794,-14.161l14.16,-3.794l10.366,10.366l-3.794,14.16l-14.16,3.795Z" style="fill:none;stroke:#7d5dec;stroke-width:4px;"/><path d="M540.594,1035.17l3.794,-14.161" style="fill:none;stroke:#7d5dec;stroke-width:4px;"/><path d="M558.548,1017.22l-14.16,3.794l-10.366,-10.366" style="fill:none;stroke:#7d5dec;stroke-width:4px;"/></g><g><path d="M611.438,1101.21l-10.366,-10.366l3.795,-14.16l14.16,-3.794l10.366,10.366l-3.794,14.16l-14.161,3.794Z" style="fill:none;stroke:#7d5dec;stroke-width:4px;"/><path d="M611.438,1101.21l3.795,-14.16" style="fill:none;stroke:#7d5dec;stroke-width:4px;"/><path d="M629.393,1083.25l-14.16,3.794l-10.366,-10.366" style="fill:none;stroke:#7d5dec;stroke-width:4px;"/></g></g><g><g><path d="M254.206,121.424l-10.367,-10.367l3.795,-14.16l14.16,-3.794l10.366,10.366l-3.794,14.16l-14.16,3.795Z" style="fill:none;stroke:#7d5dec;stroke-width:4px;"/><path d="M254.206,121.424l3.794,-14.161" style="fill:none;stroke:#7d5dec;stroke-width:4px;"/></g><g><path d="M325.05,187.455l-10.366,-10.366l3.794,-14.16l14.161,-3.795l10.366,10.367l-3.794,14.16l-14.161,3.794Z" style="fill:none;stroke:#7d5dec;stroke-width:4px;"/><path d="M325.05,187.455l3.795,-14.16" style="fill:none;stroke:#7d5dec;stroke-width:4px;"/><path d="M343.005,169.501l-14.16,3.794l-10.367,-10.366" style="fill:none;stroke:#7d5dec;stroke-width:4px;"/></g><g><path d="M395.895,253.487l-10.366,-10.366l3.794,-14.161l14.161,-3.794l10.366,10.366l-3.795,14.16l-14.16,3.795Z" style="fill:none;stroke:#7d5dec;stroke-width:4px;"/><path d="M395.895,253.487l3.794,-14.161" style="fill:none;stroke:#7d5dec;stroke-width:4px;"/><path d="M413.85,235.532l-14.161,3.794l-10.366,-10.366" style="fill:none;stroke:#7d5dec;stroke-width:4px;"/></g><g><path d="M466.74,319.518l-10.366,-10.366l3.794,-14.16l14.16,-3.794l10.366,10.366l-3.794,14.16l-14.16,3.794Z" style="fill:none;stroke:#7d5dec;stroke-width:4px;"/><path d="M466.74,319.518l3.794,-14.16" style="fill:none;stroke:#7d5dec;stroke-width:4px;"/><path d="M484.694,301.564l-14.16,3.794l-10.366,-10.366" style="fill:none;stroke:#7d5dec;stroke-width:4px;"/></g><g><path d="M537.584,385.55l-10.366,-10.366l3.795,-14.161l14.16,-3.794l10.366,10.366l-3.794,14.161l-14.161,3.794Z" style="fill:none;stroke:#7d5dec;stroke-width:4px;"/><path d="M537.584,385.55l3.795,-14.16" style="fill:none;stroke:#7d5dec;stroke-width:4px;"/><path d="M555.539,367.595l-14.16,3.795l-10.366,-10.367" style="fill:none;stroke:#7d5dec;stroke-width:4px;"/></g><g><path d="M608.429,451.582l-10.366,-10.367l3.794,-14.16l14.161,-3.794l10.366,10.366l-3.794,14.16l-14.161,3.795Z" style="fill:none;stroke:#7d5dec;stroke-width:4px;"/><path d="M608.429,451.582l3.794,-14.161" style="fill:none;stroke:#7d5dec;stroke-width:4px;"/><path d="M626.384,433.627l-14.161,3.794l-10.366,-10.366" style="fill:none;stroke:#7d5dec;stroke-width:4px;"/></g><g><path d="M679.274,517.613l-10.366,-10.366l3.794,-14.16l14.16,-3.795l10.366,10.367l-3.794,14.16l-14.16,3.794Z" style="fill:none;stroke:#7d5dec;stroke-width:4px;"/><path d="M679.274,517.613l3.794,-14.16" style="fill:none;stroke:#7d5dec;stroke-width:4px;"/><path d="M697.228,499.659l-14.16,3.794l-10.366,-10.366" style="fill:none;stroke:#7d5dec;stroke-width:4px;"/></g><g><path d="M750.119,583.645l-10.367,-10.366l3.795,-14.161l14.16,-3.794l10.366,10.366l-3.794,14.161l-14.16,3.794Z" style="fill:none;stroke:#7d5dec;stroke-width:4px;"/><path d="M750.119,583.645l3.794,-14.161" style="fill:none;stroke:#7d5dec;stroke-width:4px;"/><path d="M768.073,565.69l-14.16,3.794l-10.366,-10.366" style="fill:none;stroke:#7d5dec;stroke-width:4px;"/></g></g><g><g><path d="M17.362,674.908l-10.366,-10.366l3.794,-14.16l14.16,-3.795l10.367,10.367l-3.795,14.16l-14.16,3.794Z" style="fill:none;stroke:#7d5dec;stroke-width:4px;"/><path d="M17.362,674.908l3.794,-14.16" style="fill:none;stroke:#7d5dec;stroke-width:4px;"/><path d="M35.317,656.954l-14.161,3.794l-10.366,-10.366" style="fill:none;stroke:#7d5dec;stroke-width:4px;"/></g><g><path d="M88.207,740.94l-10.366,-10.366l3.794,-14.161l14.16,-3.794l10.366,10.366l-3.794,14.16l-14.16,3.795Z" style="fill:none;stroke:#7d5dec;stroke-width:4px;"/><path d="M88.207,740.94l3.794,-14.161" style="fill:none;stroke:#7d5dec;stroke-width:4px;"/><path d="M106.161,722.985l-14.16,3.794l-10.366,-10.366" style="fill:none;stroke:#7d5dec;stroke-width:4px;"/></g><g><path d="M159.051,806.971l-10.366,-10.366l3.795,-14.16l14.16,-3.794l10.366,10.366l-3.794,14.16l-14.161,3.794Z" style="fill:none;stroke:#7d5dec;stroke-width:4px;"/><path d="M159.051,806.971l3.795,-14.16" style="fill:none;stroke:#7d5dec;stroke-width:4px;"/><path d="M177.006,789.017l-14.16,3.794l-10.366,-10.366" style="fill:none;stroke:#7d5dec;stroke-width:4px;"/></g><g><path d="M229.896,873.003l-10.366,-10.366l3.794,-14.161l14.161,-3.794l10.366,10.366l-3.795,14.161l-14.16,3.794Z" style="fill:none;stroke:#7d5dec;stroke-width:4px;"/><path d="M229.896,873.003l3.794,-14.16" style="fill:none;stroke:#7d5dec;stroke-width:4px;"/><path d="M247.851,855.048l-14.161,3.795l-10.366,-10.367" style="fill:none;stroke:#7d5dec;stroke-width:4px;"/></g><g><path d="M300.741,939.035l-10.366,-10.367l3.794,-14.16l14.16,-3.794l10.366,10.366l-3.794,14.16l-14.16,3.795Z" style="fill:none;stroke:#7d5dec;stroke-width:4px;"/><path d="M300.741,939.035l3.794,-14.161" style="fill:none;stroke:#7d5dec;stroke-width:4px;"/><path d="M318.695,921.08l-14.16,3.794l-10.366,-10.366" style="fill:none;stroke:#7d5dec;stroke-width:4px;"/></g><g><path d="M371.586,1005.07l-10.367,-10.366l3.795,-14.16l14.16,-3.795l10.366,10.367l-3.794,14.16l-14.16,3.794Z" style="fill:none;stroke:#7d5dec;stroke-width:4px;"/><path d="M371.586,1005.07l3.794,-14.16" style="fill:none;stroke:#7d5dec;stroke-width:4px;"/><path d="M389.54,987.112l-14.16,3.794l-10.366,-10.366" style="fill:none;stroke:#7d5dec;stroke-width:4px;"/></g><g><path d="M442.43,1071.1l-10.366,-10.366l3.794,-14.161l14.161,-3.794l10.366,10.366l-3.794,14.161l-14.161,3.794Z" style="fill:none;stroke:#7d5dec;stroke-width:4px;"/><path d="M442.43,1071.1l3.795,-14.161" style="fill:none;stroke:#7d5dec;stroke-width:4px;"/><path d="M460.385,1053.14l-14.16,3.794l-10.367,-10.366" style="fill:none;stroke:#7d5dec;stroke-width:4px;"/></g></g><g><g><path d="M156.042,157.347l-10.366,-10.367l3.794,-14.16l14.161,-3.794l10.366,10.366l-3.794,14.16l-14.161,3.795Z" style="fill:none;stroke:#7d5dec;stroke-width:4px;"/><path d="M156.042,157.347l3.794,-14.161" style="fill:none;stroke:#7d5dec;stroke-width:4px;"/><path d="M173.997,139.392l-14.161,3.794l-10.366,-10.366" style="fill:none;stroke:#7d5dec;stroke-width:4px;"/></g><g><path d="M226.887,223.378l-10.366,-10.366l3.794,-14.16l14.16,-3.795l10.367,10.367l-3.795,14.16l-14.16,3.794Z" style="fill:none;stroke:#7d5dec;stroke-width:4px;"/><path d="M226.887,223.378l3.794,-14.16" style="fill:none;stroke:#7d5dec;stroke-width:4px;"/><path d="M244.842,205.424l-14.161,3.794l-10.366,-10.366" style="fill:none;stroke:#7d5dec;stroke-width:4px;"/></g><g><path d="M297.732,289.41l-10.367,-10.366l3.795,-14.161l14.16,-3.794l10.366,10.366l-3.794,14.161l-14.16,3.794Z" style="fill:none;stroke:#7d5dec;stroke-width:4px;"/><path d="M297.732,289.41l3.794,-14.161" style="fill:none;stroke:#7d5dec;stroke-width:4px;"/><path d="M315.686,271.455l-14.16,3.794l-10.366,-10.366" style="fill:none;stroke:#7d5dec;stroke-width:4px;"/></g><g><path d="M368.576,355.441l-10.366,-10.366l3.794,-14.16l14.161,-3.794l10.366,10.366l-3.794,14.16l-14.161,3.794Z" style="fill:none;stroke:#7d5dec;stroke-width:4px;"/><path d="M368.576,355.441l3.795,-14.16" style="fill:none;stroke:#7d5dec;stroke-width:4px;"/><path d="M386.531,337.487l-14.16,3.794l-10.367,-10.366" style="fill:none;stroke:#7d5dec;stroke-width:4px;"/></g><g><path d="M439.421,421.473l-10.366,-10.366l3.794,-14.16l14.161,-3.795l10.366,10.366l-3.795,14.161l-14.16,3.794Z" style="fill:none;stroke:#7d5dec;stroke-width:4px;"/><path d="M439.421,421.473l3.794,-14.16" style="fill:none;stroke:#7d5dec;stroke-width:4px;"/><path d="M457.376,403.518l-14.161,3.795l-10.366,-10.366" style="fill:none;stroke:#7d5dec;stroke-width:4px;"/></g><g><path d="M510.266,487.505l-10.366,-10.366l3.794,-14.161l14.16,-3.794l10.366,10.366l-3.794,14.16l-14.16,3.795Z" style="fill:none;stroke:#7d5dec;stroke-width:4px;"/><path d="M510.266,487.505l3.794,-14.161" style="fill:none;stroke:#7d5dec;stroke-width:4px;"/><path d="M528.22,469.55l-14.16,3.794l-10.366,-10.366" style="fill:none;stroke:#7d5dec;stroke-width:4px;"/></g><g><path d="M581.11,553.536l-10.366,-10.366l3.795,-14.16l14.16,-3.795l10.366,10.367l-3.794,14.16l-14.161,3.794Z" style="fill:none;stroke:#7d5dec;stroke-width:4px;"/><path d="M581.11,553.536l3.795,-14.16" style="fill:none;stroke:#7d5dec;stroke-width:4px;"/><path d="M599.065,535.582l-14.16,3.794l-10.366,-10.366" style="fill:none;stroke:#7d5dec;stroke-width:4px;"/></g><g><path d="M651.955,619.568l-10.366,-10.366l3.794,-14.161l14.161,-3.794l10.366,10.366l-3.794,14.161l-14.161,3.794Z" style="fill:none;stroke:#7d5dec;stroke-width:4px;"/><path d="M651.955,619.568l3.794,-14.161" style="fill:none;stroke:#7d5dec;stroke-width:4px;"/><path d="M669.91,601.613l-14.161,3.794l-10.366,-10.366" style="fill:none;stroke:#7d5dec;stroke-width:4px;"/></g><g><path d="M722.8,685.599l-10.366,-10.366l3.794,-14.16l14.16,-3.794l10.367,10.366l-3.795,14.16l-14.16,3.794Z" style="fill:none;stroke:#7d5dec;stroke-width:4px;"/><path d="M722.8,685.599l3.794,-14.16" style="fill:none;stroke:#7d5dec;stroke-width:4px;"/><path d="M740.755,667.645l-14.161,3.794l-10.366,-10.366" style="fill:none;stroke:#7d5dec;stroke-width:4px;"/></g><g><path d="M793.645,751.631l-10.366,-10.366l3.794,-14.16l14.16,-3.795l10.366,10.366l-3.794,14.161l-14.16,3.794Z" style="fill:none;stroke:#7d5dec;stroke-width:4px;"/><path d="M793.645,751.631l3.794,-14.16" style="fill:none;stroke:#7d5dec;stroke-width:4px;"/><path d="M811.599,733.676l-14.16,3.795l-10.366,-10.366" style="fill:none;stroke:#7d5dec;stroke-width:4px;"/></g></g><g><g><path d="M-9.957,776.863l-10.366,-10.366l3.794,-14.161l14.161,-3.794l10.366,10.366l-3.794,14.161l-14.161,3.794Z" style="fill:none;stroke:#7d5dec;stroke-width:4px;"/><path d="M7.998,758.908l-14.16,3.794l-10.367,-10.366" style="fill:none;stroke:#7d5dec;stroke-width:4px;"/></g><g><path d="M60.888,842.894l-10.366,-10.366l3.794,-14.16l14.161,-3.794l10.366,10.366l-3.795,14.16l-14.16,3.794Z" style="fill:none;stroke:#7d5dec;stroke-width:4px;"/><path d="M60.888,842.894l3.794,-14.16" style="fill:none;stroke:#7d5dec;stroke-width:4px;"/><path d="M78.843,824.94l-14.161,3.794l-10.366,-10.366" style="fill:none;stroke:#7d5dec;stroke-width:4px;"/></g><g><path d="M131.733,908.926l-10.366,-10.366l3.794,-14.16l14.16,-3.795l10.366,10.366l-3.794,14.161l-14.16,3.794Z" style="fill:none;stroke:#7d5dec;stroke-width:4px;"/><path d="M131.733,908.926l3.794,-14.16" style="fill:none;stroke:#7d5dec;stroke-width:4px;"/><path d="M149.687,890.971l-14.16,3.795l-10.366,-10.366" style="fill:none;stroke:#7d5dec;stroke-width:4px;"/></g><g><path d="M202.577,974.958l-10.366,-10.366l3.795,-14.161l14.16,-3.794l10.366,10.366l-3.794,14.16l-14.161,3.795Z" style="fill:none;stroke:#7d5dec;stroke-width:4px;"/><path d="M202.577,974.958l3.795,-14.161" style="fill:none;stroke:#7d5dec;stroke-width:4px;"/><path d="M220.532,957.003l-14.16,3.794l-10.366,-10.366" style="fill:none;stroke:#7d5dec;stroke-width:4px;"/></g><g><path d="M273.422,1040.99l-10.366,-10.366l3.794,-14.16l14.161,-3.795l10.366,10.367l-3.794,14.16l-14.161,3.794Z" style="fill:none;stroke:#7d5dec;stroke-width:4px;"/><path d="M273.422,1040.99l3.794,-14.16" style="fill:none;stroke:#7d5dec;stroke-width:4px;"/><path d="M291.377,1023.03l-14.161,3.794l-10.366,-10.366" style="fill:none;stroke:#7d5dec;stroke-width:4px;"/></g><g><path d="M344.267,1107.02l-10.366,-10.366l3.794,-14.161l14.16,-3.794l10.367,10.366l-3.795,14.161l-14.16,3.794Z" style="fill:none;stroke:#7d5dec;stroke-width:4px;"/><path d="M344.267,1107.02l3.794,-14.161" style="fill:none;stroke:#7d5dec;stroke-width:4px;"/><path d="M362.222,1089.07l-14.161,3.794l-10.366,-10.366" style="fill:none;stroke:#7d5dec;stroke-width:4px;"/></g></g><g><g><path d="M128.723,259.301l-10.366,-10.366l3.795,-14.16l14.16,-3.794l10.366,10.366l-3.794,14.16l-14.161,3.794Z" style="fill:none;stroke:#7d5dec;stroke-width:4px;"/><path d="M128.723,259.301l3.795,-14.16" style="fill:none;stroke:#7d5dec;stroke-width:4px;"/><path d="M146.678,241.347l-14.16,3.794l-10.366,-10.366" style="fill:none;stroke:#7d5dec;stroke-width:4px;"/></g><g><path d="M199.568,325.333l-10.366,-10.366l3.794,-14.161l14.161,-3.794l10.366,10.366l-3.794,14.161l-14.161,3.794Z" style="fill:none;stroke:#7d5dec;stroke-width:4px;"/><path d="M199.568,325.333l3.794,-14.16" style="fill:none;stroke:#7d5dec;stroke-width:4px;"/><path d="M217.523,307.378l-14.161,3.795l-10.366,-10.367" style="fill:none;stroke:#7d5dec;stroke-width:4px;"/></g><g><path d="M270.413,391.364l-10.366,-10.366l3.794,-14.16l14.16,-3.794l10.367,10.366l-3.795,14.16l-14.16,3.794Z" style="fill:none;stroke:#7d5dec;stroke-width:4px;"/><path d="M270.413,391.364l3.794,-14.16" style="fill:none;stroke:#7d5dec;stroke-width:4px;"/><path d="M288.368,373.41l-14.161,3.794l-10.366,-10.366" style="fill:none;stroke:#7d5dec;stroke-width:4px;"/></g><g><path d="M341.258,457.396l-10.366,-10.366l3.794,-14.16l14.16,-3.795l10.366,10.366l-3.794,14.161l-14.16,3.794Z" style="fill:none;stroke:#7d5dec;stroke-width:4px;"/><path d="M341.258,457.396l3.794,-14.16" style="fill:none;stroke:#7d5dec;stroke-width:4px;"/><path d="M359.212,439.441l-14.16,3.795l-10.366,-10.366" style="fill:none;stroke:#7d5dec;stroke-width:4px;"/></g><g><path d="M412.102,523.428l-10.366,-10.366l3.795,-14.161l14.16,-3.794l10.366,10.366l-3.794,14.16l-14.161,3.795Z" style="fill:none;stroke:#7d5dec;stroke-width:4px;"/><path d="M412.102,523.428l3.795,-14.161" style="fill:none;stroke:#7d5dec;stroke-width:4px;"/><path d="M430.057,505.473l-14.16,3.794l-10.366,-10.366" style="fill:none;stroke:#7d5dec;stroke-width:4px;"/></g><g><path d="M482.947,589.459l-10.366,-10.366l3.794,-14.16l14.161,-3.794l10.366,10.366l-3.795,14.16l-14.16,3.794Z" style="fill:none;stroke:#7d5dec;stroke-width:4px;"/><path d="M482.947,589.459l3.794,-14.16" style="fill:none;stroke:#7d5dec;stroke-width:4px;"/><path d="M500.902,571.505l-14.161,3.794l-10.366,-10.366" style="fill:none;stroke:#7d5dec;stroke-width:4px;"/></g><g><path d="M553.792,655.491l-10.366,-10.366l3.794,-14.161l14.16,-3.794l10.366,10.366l-3.794,14.161l-14.16,3.794Z" style="fill:none;stroke:#7d5dec;stroke-width:4px;"/><path d="M553.792,655.491l3.794,-14.16" style="fill:none;stroke:#7d5dec;stroke-width:4px;"/><path d="M571.746,637.536l-14.16,3.795l-10.366,-10.367" style="fill:none;stroke:#7d5dec;stroke-width:4px;"/></g><g><path d="M624.637,721.523l-10.367,-10.367l3.795,-14.16l14.16,-3.794l10.366,10.366l-3.794,14.16l-14.16,3.795Z" style="fill:none;stroke:#7d5dec;stroke-width:4px;"/><path d="M624.637,721.523l3.794,-14.161" style="fill:none;stroke:#7d5dec;stroke-width:4px;"/><path d="M642.591,703.568l-14.16,3.794l-10.366,-10.366" style="fill:none;stroke:#7d5dec;stroke-width:4px;"/></g><g><path d="M695.481,787.554l-10.366,-10.366l3.794,-14.16l14.161,-3.795l10.366,10.366l-3.794,14.161l-14.161,3.794Z" style="fill:none;stroke:#7d5dec;stroke-width:4px;"/><path d="M695.481,787.554l3.794,-14.16" style="fill:none;stroke:#7d5dec;stroke-width:4px;"/><path d="M713.436,769.599l-14.161,3.795l-10.366,-10.366" style="fill:none;stroke:#7d5dec;stroke-width:4px;"/></g><g><path d="M766.326,853.586l-10.366,-10.366l3.794,-14.161l14.16,-3.794l10.367,10.366l-3.795,14.16l-14.16,3.795Z" style="fill:none;stroke:#7d5dec;stroke-width:4px;"/><path d="M766.326,853.586l3.794,-14.161" style="fill:none;stroke:#7d5dec;stroke-width:4px;"/><path d="M784.281,835.631l-14.161,3.794l-10.366,-10.366" style="fill:none;stroke:#7d5dec;stroke-width:4px;"/></g></g><g><g><path d="M33.569,944.849l-10.366,-10.366l3.794,-14.16l14.161,-3.795l10.366,10.366l-3.794,14.161l-14.161,3.794Z" style="fill:none;stroke:#7d5dec;stroke-width:4px;"/><path d="M33.569,944.849l3.795,-14.16" style="fill:none;stroke:#7d5dec;stroke-width:4px;"/><path d="M51.524,926.894l-14.16,3.795l-10.367,-10.366" style="fill:none;stroke:#7d5dec;stroke-width:4px;"/></g><g><path d="M104.414,1010.88l-10.366,-10.366l3.794,-14.161l14.161,-3.794l10.366,10.366l-3.795,14.16l-14.16,3.795Z" style="fill:none;stroke:#7d5dec;stroke-width:4px;"/><path d="M104.414,1010.88l3.794,-14.161" style="fill:none;stroke:#7d5dec;stroke-width:4px;"/><path d="M122.369,992.926l-14.161,3.794l-10.366,-10.366" style="fill:none;stroke:#7d5dec;stroke-width:4px;"/></g><g><path d="M175.259,1076.91l-10.366,-10.366l3.794,-14.16l14.16,-3.794l10.366,10.366l-3.794,14.16l-14.16,3.794Z" style="fill:none;stroke:#7d5dec;stroke-width:4px;"/><path d="M175.259,1076.91l3.794,-14.16" style="fill:none;stroke:#7d5dec;stroke-width:4px;"/><path d="M193.213,1058.96l-14.16,3.794l-10.366,-10.366" style="fill:none;stroke:#7d5dec;stroke-width:4px;"/></g></g><g><g><path d="M101.405,361.256l-10.366,-10.366l3.794,-14.161l14.16,-3.794l10.366,10.366l-3.794,14.161l-14.16,3.794Z" style="fill:none;stroke:#7d5dec;stroke-width:4px;"/><path d="M101.405,361.256l3.794,-14.16" style="fill:none;stroke:#7d5dec;stroke-width:4px;"/><path d="M119.359,343.301l-14.16,3.795l-10.366,-10.367" style="fill:none;stroke:#7d5dec;stroke-width:4px;"/></g><g><path d="M172.25,427.288l-10.367,-10.367l3.795,-14.16l14.16,-3.794l10.366,10.366l-3.794,14.16l-14.16,3.795Z" style="fill:none;stroke:#7d5dec;stroke-width:4px;"/><path d="M172.25,427.288l3.794,-14.161" style="fill:none;stroke:#7d5dec;stroke-width:4px;"/><path d="M190.204,409.333l-14.16,3.794l-10.366,-10.366" style="fill:none;stroke:#7d5dec;stroke-width:4px;"/></g><g><path d="M243.094,493.319l-10.366,-10.366l3.794,-14.16l14.161,-3.795l10.366,10.367l-3.794,14.16l-14.161,3.794Z" style="fill:none;stroke:#7d5dec;stroke-width:4px;"/><path d="M243.094,493.319l3.795,-14.16" style="fill:none;stroke:#7d5dec;stroke-width:4px;"/><path d="M261.049,475.365l-14.16,3.794l-10.367,-10.366" style="fill:none;stroke:#7d5dec;stroke-width:4px;"/></g><g><path d="M313.939,559.351l-10.366,-10.366l3.794,-14.161l14.16,-3.794l10.367,10.366l-3.795,14.16l-14.16,3.795Z" style="fill:none;stroke:#7d5dec;stroke-width:4px;"/><path d="M313.939,559.351l3.794,-14.161" style="fill:none;stroke:#7d5dec;stroke-width:4px;"/><path d="M331.894,541.396l-14.161,3.794l-10.366,-10.366" style="fill:none;stroke:#7d5dec;stroke-width:4px;"/></g><g><path d="M384.784,625.382l-10.366,-10.366l3.794,-14.16l14.16,-3.794l10.366,10.366l-3.794,14.16l-14.16,3.794Z" style="fill:none;stroke:#7d5dec;stroke-width:4px;"/><path d="M384.784,625.382l3.794,-14.16" style="fill:none;stroke:#7d5dec;stroke-width:4px;"/><path d="M402.738,607.428l-14.16,3.794l-10.366,-10.366" style="fill:none;stroke:#7d5dec;stroke-width:4px;"/></g><g><path d="M455.628,691.414l-10.366,-10.366l3.795,-14.161l14.16,-3.794l10.366,10.366l-3.794,14.161l-14.161,3.794Z" style="fill:none;stroke:#7d5dec;stroke-width:4px;"/><path d="M455.628,691.414l3.795,-14.16" style="fill:none;stroke:#7d5dec;stroke-width:4px;"/><path d="M473.583,673.459l-14.16,3.795l-10.366,-10.367" style="fill:none;stroke:#7d5dec;stroke-width:4px;"/></g><g><path d="M526.473,757.446l-10.366,-10.367l3.794,-14.16l14.161,-3.794l10.366,10.366l-3.794,14.16l-14.161,3.795Z" style="fill:none;stroke:#7d5dec;stroke-width:4px;"/><path d="M526.473,757.446l3.794,-14.161" style="fill:none;stroke:#7d5dec;stroke-width:4px;"/><path d="M544.428,739.491l-14.161,3.794l-10.366,-10.366" style="fill:none;stroke:#7d5dec;stroke-width:4px;"/></g><g><path d="M597.318,823.477l-10.366,-10.366l3.794,-14.16l14.16,-3.795l10.366,10.367l-3.794,14.16l-14.16,3.794Z" style="fill:none;stroke:#7d5dec;stroke-width:4px;"/><path d="M597.318,823.477l3.794,-14.16" style="fill:none;stroke:#7d5dec;stroke-width:4px;"/><path d="M615.272,805.523l-14.16,3.794l-10.366,-10.366" style="fill:none;stroke:#7d5dec;stroke-width:4px;"/></g><g><path d="M668.163,889.509l-10.367,-10.366l3.795,-14.161l14.16,-3.794l10.366,10.366l-3.794,14.161l-14.16,3.794Z" style="fill:none;stroke:#7d5dec;stroke-width:4px;"/><path d="M668.163,889.509l3.794,-14.161" style="fill:none;stroke:#7d5dec;stroke-width:4px;"/><path d="M686.117,871.554l-14.16,3.794l-10.366,-10.366" style="fill:none;stroke:#7d5dec;stroke-width:4px;"/></g><g><path d="M739.007,955.54l-10.366,-10.366l3.794,-14.16l14.161,-3.794l10.366,10.366l-3.794,14.16l-14.161,3.794Z" style="fill:none;stroke:#7d5dec;stroke-width:4px;"/><path d="M739.007,955.54l3.795,-14.16" style="fill:none;stroke:#7d5dec;stroke-width:4px;"/><path d="M756.962,937.586l-14.16,3.794l-10.367,-10.366" style="fill:none;stroke:#7d5dec;stroke-width:4px;"/></g><g><path d="M809.852,1021.57l-10.366,-10.366l3.794,-14.16l14.161,-3.795l10.366,10.366l-3.795,14.161l-14.16,3.794Z" style="fill:none;stroke:#7d5dec;stroke-width:4px;"/></g></g></g></g></g><g><g transform="matrix(0.999932,-0.0116327,-0.00256488,1.0001,1.92238,1.36393)"><text x="123.505px" y="746.243px" style="font-family:'Raleway-BlackItalic', 'Raleway', sans-serif;font-weight:900;font-style:italic;font-size:139.871px;fill:#372182;">A<tspan x="206.53px 295.837px 386.51px 465.029px 546.416px " y="746.243px 746.243px 746.243px 746.243px 746.243px ">CCESS</tspan></text></g><g transform="matrix(0.999994,-0.00333634,-0.01047,1.00004,-22.3215,-22.4333)"><text x="188.419px" y="659.175px" style="font-family:'Raleway-BlackItalic', 'Raleway', sans-serif;font-weight:900;font-style:italic;font-size:169.358px;fill:#372182;">E<tspan x="283.47px 388.604px 496.549px 574.077px " y="659.175px 659.175px 659.175px 659.175px ">ARLY</tspan></text></g></g><clipPath id="_clip2"><path d="M785.558,303.32c4.369,-16.306 -5.322,-33.092 -21.629,-37.461l-506.968,-135.842c-16.307,-4.369 -33.093,5.322 -37.462,21.628l-203.916,761.026c-4.37,16.307 5.322,33.093 21.628,37.462l506.969,135.842c16.306,4.369 33.092,-5.322 37.461,-21.629l203.917,-761.026Z"/></clipPath><g clip-path="url(#_clip2)"><path d="M947.332,243.344l-822.345,-220.347l-64.714,241.514l822.345,220.347l64.714,-241.514Z" style="fill:#372182;"/></g><path d="M583.356,249.14c1.935,-7.221 -2.357,-14.655 -9.579,-16.59l-112.002,-30.011c-7.222,-1.935 -14.656,2.357 -16.591,9.578c-1.935,7.222 2.357,14.656 9.579,16.591l112.002,30.011c7.222,1.935 14.656,-2.357 16.591,-9.579Z" style="fill:#fff;"/><path d="M636.111,-0.083l-112.003,-30.011l-65.839,245.717l112.002,30.011l65.84,-245.717Z" style="fill:url(#_Linear3);"/><path d="M86.878,861.686l95.255,25.524" style="fill:none;stroke:#372182;stroke-width:4.5px;"/><path d="M450.136,959.021l95.255,25.524" style="fill:none;stroke:#372182;stroke-width:4.5px;"/><path d="M499.733,269.114c58.267,15.612 92.896,75.592 77.284,133.858c-15.613,58.266 -75.593,92.895 -133.859,77.283c-58.266,-15.612 -92.895,-75.592 -77.283,-133.858c15.613,-58.266 75.592,-92.896 133.858,-77.283Z" style="fill:#fff;"/><g id="block_lab_logo_primary"><path id="block_lab_icon_primary" d="M423.402,311.695c0.333,-0.268 0.721,-0.482 1.161,-0.621l44.58,-11.945c0.714,-0.159 1.447,-0.135 2.175,0.095c0.409,0.169 0.601,0.182 1.321,0.842l32.635,32.634l0,0l32.635,32.635l0.172,0.185l0.159,0.196l0.145,0.207l0.13,0.217l0.115,0.225l0.099,0.233l0.082,0.238l0.065,0.245l0.049,0.248l0.03,0.25l0.014,0.253l-0.005,0.252l-0.022,0.252l-0.039,0.249l-0.057,0.247l0,0l-11.945,44.58c-0.591,1.816 -0.832,1.998 -2.56,2.559l-88.82,23.8c-1.222,0.5 -2.596,0.31 -3.836,-0.846l0,0l-32.635,-32.635l0,-0.001c-0.164,-0.174 -0.3,-0.332 -0.415,-0.475c-0.749,-0.898 -0.841,-1.335 -0.637,-2.446c0.028,-0.388 0.113,-0.76 0.258,-1.107l23.747,-88.627c0.263,-0.801 0.757,-1.473 1.399,-1.939Zm8.968,117.677l21.727,-81.085l-26.723,-26.724l-21.727,81.072l26.723,26.737Zm63.519,-54.651l32.467,-8.7l-23.768,-23.768l-8.699,32.468Z" style="fill:#7d5dec;fill-rule:nonzero;"/></g><g transform="matrix(0.965926,0.258819,-0.258819,0.965926,-858.364,698.604)"><text x="1085.98px" y="-56.973px" style="font-family:'Raleway-Bold', 'Raleway', sans-serif;font-weight:700;font-size:85.283px;fill:#372182;">P<tspan x="1135.28px 1191.65px " y="-56.973px -56.973px ">AS</tspan>S</text></g></g><defs><linearGradient id="_Linear3" x1="0" y1="0" x2="1" y2="0" gradientUnits="userSpaceOnUse" gradientTransform="matrix(8.36004,-31.2001,31.2001,8.36004,522.187,201.084)"><stop offset="0" style="stop-color:#372182;stop-opacity:1"/><stop offset="1" style="stop-color:#694ad1;stop-opacity:1"/></linearGradient></defs></svg>