<?xml version="1.0" encoding="UTF-8" standalone="no"?>
<!DOCTYPE svg PUBLIC "-//W3C//DTD SVG 1.1//EN" "http://www.w3.org/Graphics/SVG/1.1/DTD/svg11.dtd">
<svg width="100%" height="100%" viewBox="0 0 128 128" version="1.1" xmlns="http://www.w3.org/2000/svg" xmlns:xlink="http://www.w3.org/1999/xlink" xml:space="preserve" xmlns:serif="http://www.serif.com/" style="fill-rule:evenodd;clip-rule:evenodd;stroke-linejoin:round;stroke-miterlimit:1.41421;">
  <g id="icon">
    <rect x="0" y="0" width="128" height="128" style="fill:#5c34e8;"/>
    <path id="block_lab_icon_primary" d="M29.334,37.237c0.139,-0.191 0.316,-0.361 0.531,-0.498l22.09,-12.754c0.358,-0.186 0.753,-0.278 1.174,-0.26c0.243,0.032 0.348,0.011 0.826,0.26l22.09,12.754l0,0l22.09,12.754l0.119,0.074l0.113,0.082l0.106,0.09l0.101,0.097l0.093,0.103l0.086,0.11l0.078,0.116l0.07,0.121l0.061,0.126l0.053,0.129l0.043,0.133l0.034,0.135l0.024,0.138l0.015,0.139l0.004,0.139l0,0l0,25.507c-0.055,1.054 -0.158,1.186 -1,1.733l-44.011,25.41c-0.581,0.442 -1.341,0.537 -2.169,0.097l0,0l-22.09,-12.753l0,-0.001c-0.112,-0.07 -0.208,-0.134 -0.289,-0.194c-0.529,-0.373 -0.64,-0.593 -0.691,-1.215c-0.04,-0.211 -0.048,-0.422 -0.02,-0.628l0,-50.709c0.025,-0.465 0.193,-0.895 0.469,-1.235Zm21.621,61.537l0,-46.394l-18.089,-10.443l-0.002,46.387l18.091,10.45Zm26.091,-38.26l16.088,-9.289l-16.088,-9.288l0,18.577Z" style="fill:#fff;fill-rule:nonzero;"/>
  </g>
</svg>