<?xml version="1.0" encoding="UTF-8" standalone="no"?>
<!DOCTYPE svg PUBLIC "-//W3C//DTD SVG 1.1//EN" "http://www.w3.org/Graphics/SVG/1.1/DTD/svg11.dtd">
<svg width="100%" height="100%" viewBox="0 0 128 128" version="1.1" xmlns="http://www.w3.org/2000/svg" xmlns:xlink="http://www.w3.org/1999/xlink" xml:space="preserve" xmlns:serif="http://www.serif.com/" style="fill-rule:evenodd;clip-rule:evenodd;stroke-linejoin:round;stroke-miterlimit:1.41421;">
    <g id="icon">
        <rect x="0" y="0" width="128" height="128" style="fill:#7d5dec;"/>
        <path d="M29.334,37.24c0.14,-0.191 0.317,-0.36 0.531,-0.498l22.095,-12.756c0.359,-0.187 0.754,-0.279 1.175,-0.261c0.243,0.032 0.347,0.012 0.826,0.261l22.095,12.756l0,0l22.095,12.757l0.118,0.074l0.113,0.082l0.107,0.09l0.101,0.097l0.093,0.104l0.086,0.11l0.078,0.115l0.07,0.121l0.062,0.126l0.052,0.129l0.043,0.133l0.034,0.136l0.024,0.137l0.015,0.139l0.005,0.14l0,0l0,25.513c-0.056,1.054 -0.159,1.186 -1.001,1.733l-44.022,25.416c-0.58,0.442 -1.341,0.537 -2.168,0.097l-0.001,0l-22.095,-12.757l0,0c-0.112,-0.07 -0.208,-0.134 -0.289,-0.194c-0.529,-0.373 -0.64,-0.593 -0.691,-1.215c-0.04,-0.212 -0.048,-0.423 -0.02,-0.628l0,-50.722c0.025,-0.465 0.193,-0.895 0.469,-1.235Zm5.534,52.261l16.092,9.291l0,-18.581l-16.092,9.29Zm-2.001,-47.56l0,44.094l18.093,-10.446l0,-23.202l-18.093,-10.446Zm44.19,18.581l16.091,-9.29l-16.091,-9.291l0,18.581Z" style="fill:#fff;fill-rule:nonzero;"/>
    </g>
</svg>
